<svg width="42" height="42" viewBox="0 0 42 42" fill="none" xmlns="http://www.w3.org/2000/svg">
<path d="M28.3557 21.0098C28.3557 22.4322 27.9339 23.8226 27.1438 25.0052C26.3537 26.1878 25.2307 27.1096 23.9168 27.6539C22.6029 28.1982 21.1572 28.3406 19.7623 28.0631C18.3675 27.7856 17.0863 27.1007 16.0807 26.095C15.0751 25.0892 14.3902 23.8078 14.1128 22.4128C13.8353 21.0178 13.9777 19.5718 14.522 18.2578C15.0662 16.9437 15.9878 15.8205 17.1703 15.0303C18.3528 14.2401 19.743 13.8184 21.1651 13.8184C23.072 13.819 24.9006 14.5768 26.2489 15.9254C27.5973 17.2739 28.355 19.1027 28.3557 21.0098Z" fill="white"/>
<path d="M41.6562 21.0098C41.654 24.6122 40.7037 28.1506 38.9009 31.2694C37.0981 34.3881 34.5063 36.9774 31.386 38.777L31.1497 37.064L31.1833 37.0594L30.8681 34.8429L30.8432 34.8464L30.337 31.1823L29.8962 27.9904C31.4834 26.0104 32.3467 23.5475 32.3429 21.0098C32.3429 14.8355 27.3383 9.82921 21.1638 9.82921C14.9892 9.82921 9.9847 14.835 9.9847 21.0098C9.98074 23.5464 10.8431 26.0084 12.429 27.988L11.9882 31.1817L11.5249 34.5371H11.5104L11.1947 36.7535L11.2184 36.757L10.9393 38.7776C7.81787 36.9829 5.22412 34.3977 3.41898 31.2821C1.61384 28.1665 0.660976 24.6304 0.656268 21.0295C0.651559 17.4286 1.59516 13.89 3.39215 10.7697C5.18914 7.64936 7.77613 5.05741 10.8928 3.25461C14.0095 1.4518 17.546 0.501736 21.1464 0.500002C24.7468 0.498269 28.2842 1.44493 31.4026 3.24473C34.521 5.04453 37.1105 7.63399 38.9105 10.7526C40.7105 13.8712 41.6575 17.4089 41.6562 21.0098Z" fill="white"/>
<path d="M27.9256 40.3564C23.5467 41.8807 18.7812 41.8807 14.4023 40.3564L14.8206 37.3266L15.0858 35.4062L15.1362 35.0511L15.7537 30.5801C17.4041 31.5146 19.2683 32.0057 21.1648 32.0057C23.0613 32.0057 24.9256 31.5146 26.576 30.5801L27.5079 37.3261L27.9256 40.3564Z" fill="white"/>
</svg>
