<svg width="33" height="33" viewBox="0 0 33 33" fill="none" xmlns="http://www.w3.org/2000/svg">
<g id="skill-icons:discord" clip-path="url(#clip0_339_367)">
<g id="Group">
<path id="Vector" d="M24.5898 0.701172H7.58984C3.44771 0.701172 0.0898438 4.05904 0.0898438 8.20117V25.2012C0.0898438 29.3433 3.44771 32.7012 7.58984 32.7012H24.5898C28.732 32.7012 32.0898 29.3433 32.0898 25.2012V8.20117C32.0898 4.05904 28.732 0.701172 24.5898 0.701172Z" fill="#D131FF"/>
<g id="Clip path group">
<mask id="mask0_339_367" style="mask-type:luminance" maskUnits="userSpaceOnUse" x="3" y="7" width="26" height="20">
<g id="skillIconsDiscord0">
<path id="Vector_2" d="M3.58984 7.07617H28.5898V26.4424H3.58984V7.07617Z" fill="white"/>
</g>
</mask>
<g mask="url(#mask0_339_367)">
<g id="Group_2">
<path id="Vector_3" d="M24.7533 8.80086C23.1325 8.05683 21.422 7.52628 19.6647 7.22248C19.6487 7.21953 19.6322 7.22168 19.6176 7.22864C19.6029 7.23559 19.5908 7.247 19.5829 7.26123C19.3632 7.65198 19.1197 8.16198 18.9493 8.56273C17.0277 8.27498 15.1161 8.27498 13.234 8.56273C13.0635 8.15298 12.8112 7.65198 12.5905 7.26123C12.5823 7.24729 12.5701 7.23614 12.5555 7.22922C12.5409 7.22231 12.5245 7.21996 12.5086 7.22248C10.7511 7.52566 9.04052 8.05624 7.41995 8.80086C7.40608 8.80674 7.39438 8.81679 7.38645 8.82961C4.14545 13.6716 3.2577 18.3946 3.6932 23.0591C3.69442 23.0705 3.69792 23.0816 3.7035 23.0917C3.70909 23.1017 3.71664 23.1105 3.7257 23.1176C5.86395 24.688 7.93533 25.6414 9.9682 26.2732C9.98402 26.2779 10.0009 26.2777 10.0166 26.2726C10.0323 26.2674 10.046 26.2576 10.056 26.2445C10.5368 25.5877 10.9655 24.8954 11.3331 24.1672C11.3381 24.1573 11.341 24.1463 11.3416 24.1352C11.3421 24.124 11.3402 24.1128 11.3361 24.1024C11.332 24.092 11.3258 24.0826 11.3178 24.0748C11.3098 24.067 11.3002 24.0609 11.2897 24.0571C10.6097 23.7991 9.96233 23.4847 9.33958 23.1276C9.32823 23.1209 9.31871 23.1116 9.31184 23.1003C9.30498 23.0891 9.30098 23.0763 9.3002 23.0632C9.29942 23.0501 9.30189 23.0369 9.30738 23.025C9.31287 23.013 9.32123 23.0026 9.3317 22.9946C9.46307 22.8964 9.59219 22.7952 9.71895 22.6911C9.73005 22.6819 9.74349 22.676 9.75776 22.6741C9.77203 22.6721 9.78655 22.6742 9.7997 22.6801C13.8912 24.5481 18.3206 24.5481 22.3637 22.6801C22.3769 22.6739 22.3916 22.6715 22.4061 22.6732C22.4206 22.675 22.4343 22.6809 22.4456 22.6901C22.5725 22.7948 22.7019 22.8963 22.8338 22.9946C22.8443 23.0025 22.8528 23.0129 22.8583 23.0248C22.8639 23.0367 22.8665 23.0498 22.8658 23.0629C22.8651 23.0761 22.8612 23.0888 22.8544 23.1001C22.8477 23.1114 22.8382 23.1208 22.8269 23.1276C22.2038 23.4914 21.5512 23.802 20.8758 24.0561C20.8653 24.0601 20.8558 24.0663 20.8479 24.0742C20.8399 24.0822 20.8338 24.0917 20.8298 24.1022C20.8258 24.1127 20.824 24.1239 20.8247 24.1351C20.8253 24.1463 20.8283 24.1573 20.8334 24.1672C21.2074 24.8896 21.6339 25.5835 22.1094 26.2435C22.1191 26.257 22.1328 26.2671 22.1485 26.2725C22.1643 26.2778 22.1813 26.2781 22.1972 26.2732C24.2399 25.6414 26.3113 24.688 28.4497 23.1176C28.4589 23.1109 28.4665 23.1022 28.4721 23.0923C28.4777 23.0824 28.4811 23.0714 28.4822 23.0601C29.0034 17.6675 27.6091 12.9831 24.7858 8.83061C24.7789 8.81711 24.7674 8.80656 24.7533 8.80086ZM11.9441 20.219C10.7122 20.219 9.6972 19.0881 9.6972 17.6992C9.6972 16.3104 10.6926 15.1795 11.9441 15.1795C13.2053 15.1795 14.2105 16.3204 14.1907 17.6992C14.1907 19.0881 13.1956 20.219 11.9441 20.219ZM20.2511 20.219C19.0192 20.219 18.0043 19.0881 18.0043 17.6992C18.0043 16.3104 18.9996 15.1795 20.2511 15.1795C21.5123 15.1795 22.5174 16.3204 22.4978 17.6992C22.4978 19.0881 21.5123 20.219 20.2511 20.219Z" fill="#030104"/>
</g>
</g>
</g>
</g>
</g>
<defs>
<clipPath id="clip0_339_367">
<rect width="32" height="32" fill="white" transform="translate(0.0898438 0.701172)"/>
</clipPath>
</defs>
</svg>
