<svg width="33" height="33" viewBox="0 0 33 33" fill="none" xmlns="http://www.w3.org/2000/svg">
<g id="facebook">
<g clip-path="url(#clip0_339_361)">
<path id="Vector" d="M30.3299 0.701172H1.84984C1.38306 0.701172 0.9354 0.8866 0.605336 1.21666C0.275272 1.54673 0.0898438 1.99439 0.0898438 2.46117V30.9412C0.0898438 31.1723 0.135368 31.4012 0.223816 31.6147C0.312264 31.8282 0.441905 32.0223 0.605336 32.1857C0.768767 32.3491 0.962788 32.4788 1.17632 32.5672C1.38985 32.6557 1.61872 32.7012 1.84984 32.7012H17.1778V20.3012H13.0178V15.5012H17.1778V11.9012C17.0917 11.056 17.1915 10.2022 17.4702 9.39963C17.7489 8.59709 18.1999 7.86525 18.7914 7.25543C19.3829 6.64562 20.1007 6.1726 20.8944 5.86955C21.6881 5.56651 22.5384 5.44078 23.3858 5.50117C24.6312 5.49351 25.8759 5.55762 27.1138 5.69317V10.0132H24.5698C22.5538 10.0132 22.1698 10.9732 22.1698 12.3652V15.4532H26.9698L26.3458 20.2532H22.1698V32.7012H30.3299C30.561 32.7012 30.7898 32.6557 31.0034 32.5672C31.2169 32.4788 31.4109 32.3491 31.5744 32.1857C31.7378 32.0223 31.8674 31.8282 31.9559 31.6147C32.0443 31.4012 32.0899 31.1723 32.0899 30.9412V2.46117C32.0899 2.23005 32.0443 2.00118 31.9559 1.78765C31.8674 1.57412 31.7378 1.3801 31.5744 1.21666C31.4109 1.05323 31.2169 0.923592 31.0034 0.835144C30.7898 0.746696 30.561 0.701172 30.3299 0.701172Z" fill="#D131FF"/>
</g>
</g>
<defs>
<clipPath id="clip0_339_361">
<rect x="0.0898438" y="0.701172" width="32" height="32" rx="6" fill="white"/>
</clipPath>
</defs>
</svg>
