<svg width="474" height="217" viewBox="0 0 474 217" fill="none" xmlns="http://www.w3.org/2000/svg">
<g clip-path="url(#clip0_365_36)">
<path d="M464.892 0.248047L0 0.248047V196.604V200.349V201.082V204.757V205.699V215.748H444.172L444.792 215.039L473.272 181.903V0.248047H464.892ZM472.662 10.5528L471.332 9.00596V12.6929L472.662 14.2281V14.9609L471.332 13.3675V17.1242L472.662 18.6594V181.577L443.892 215.039H65.5L64.16 213.48H60.89L62.23 215.039H61.6L60.26 213.48H57.1L58.44 215.039H57.77L56.43 213.48H53.21L54.55 215.039H53.92L52.58 213.48H49.42L50.76 215.039H15.89L14.55 213.48H11.32L12.66 215.039H12.04L10.7 213.48H7.5L8.84 215.039H8.03L0.620001 206.443V205.501L1.94 207.037V203.361L0.620001 201.791V201.07L1.94 202.605V198.86L0.620001 197.325V9.26184L7.75 0.969144H63.75L65.07 2.50441H68.29L66.97 0.969144H67.59L68.92 2.50441H72.1L70.78 0.969144H71.5L72.82 2.50441H76.04L74.72 0.969144H75.34L76.67 2.50441H79.83L78.5 0.969144H457.442L458.762 2.50441H461.992L460.662 0.969144H461.292L462.612 2.50441H465.782L464.452 0.969144H465.552L472.702 9.27348L472.662 10.5528Z" fill="#00FF84"/>
</g>
<defs>
<clipPath id="clip0_365_36">
<rect width="474" height="216" fill="white" transform="translate(0 0.248047)"/>
</clipPath>
</defs>
</svg>
