<svg width="1440" height="558" viewBox="0 0 1440 558" fill="none" xmlns="http://www.w3.org/2000/svg">
<g clip-path="url(#clip0_457_459)">
<g filter="url(#filter0_f_457_459)">
<path d="M219.646 52.1284C220.846 55.8757 222.612 59.9405 223.745 64.5726C224.877 69.2048 226.241 74.1629 227.227 79.4768C228.03 84.833 229.174 90.3925 229.803 96.2271C230.272 102.091 231.195 108.053 231.354 114.214C231.626 120.358 232.05 126.556 231.92 132.806C232.118 145.254 231.49 157.724 230.68 169.381C229.87 181.037 228.653 191.894 227.453 201.162C227.143 203.525 226.83 205.774 226.513 207.911H268.851C268.653 205.82 268.432 203.652 268.2 201.374C267.13 191.711 265.692 180.474 263.67 168.483C261.649 156.492 259.209 143.734 255.954 131.07C254.527 124.719 252.557 118.427 250.802 112.245C249.046 106.063 246.719 100.012 244.817 94.182C242.756 88.3558 240.203 82.8006 238.102 77.5333C235.787 72.2915 233.126 67.4307 230.935 62.9298C228.744 58.4289 225.873 54.4953 223.79 50.9471C221.974 47.8774 219.874 44.9063 217.505 42.0554C213.757 37.2666 211.623 34.5271 211.623 34.5271L215.62 42.7117C217.261 45.7746 218.606 48.9216 219.646 52.1284Z" fill="#000505"/>
<path d="M255.088 98.5943C256.69 101.135 258.706 103.857 260.472 106.999C262.102 110.204 263.976 113.617 265.715 117.275C267.221 121.031 268.959 124.897 270.448 129.004C271.733 133.166 273.335 137.354 274.411 141.753C275.487 146.152 276.828 150.53 277.638 155.036C279.574 163.961 280.888 172.963 281.816 181.41C282.745 189.857 283.254 197.745 283.515 204.495C283.549 205.684 283.583 206.798 283.605 207.912H316.403C315.837 205.922 315.271 203.847 314.631 201.598C312.565 194.642 310.011 186.584 306.818 178.04C303.625 169.495 299.945 160.447 295.619 151.555C293.632 147.084 291.09 142.714 288.825 138.395C286.561 134.077 283.787 129.952 281.409 125.934C278.816 121.95 276.013 118.203 273.528 114.629C270.782 111.123 267.979 107.91 265.522 104.92C262.929 101.99 260.144 99.4793 257.913 97.1844C255.682 94.8895 253.333 93.1069 251.487 91.6165L245.633 86.9885L250.213 92.3447C251.691 94.0469 253.565 96.003 255.088 98.5943Z" fill="#000505"/>
<path d="M288.487 207.912C288.487 204.004 288.804 199.689 288.877 195.078C289.081 192.157 289.477 189.151 289.777 186.072C290.179 183.007 290.23 179.814 290.972 176.757C291.578 173.649 292.184 170.533 292.778 167.472C293.251 164.45 293.983 161.455 294.969 158.504C295.858 155.608 296.73 152.813 297.54 150.163C298.349 147.512 299.017 144.925 300.195 142.723L307.164 127.578L295.722 141.267C293.848 143.303 292.461 145.717 290.791 148.219C289.121 150.721 287.394 153.406 285.605 156.162C283.686 158.979 282.001 161.882 280.56 164.855C278.981 167.878 277.39 170.944 275.788 174.009C274.049 177.075 273.002 180.246 271.615 183.324C270.324 186.424 268.954 189.472 267.81 192.462C265.97 198.034 263.921 203.246 262.658 207.899L288.487 207.912Z" fill="#000505"/>
<path d="M366.034 207.911C366.034 207.615 366.034 207.344 366.034 207.043C365.989 204.079 366.034 200.827 366.198 197.393C366.243 193.955 366.645 190.348 366.866 186.579C367.625 179.085 368.638 171.044 370.331 163.063C371.141 159.066 372.03 155.06 373.162 151.161C374.141 147.227 375.308 143.387 376.61 139.699C377.782 135.969 379.124 132.412 380.573 129.075C382.022 125.739 383.206 122.487 384.729 119.637C386.161 116.733 387.492 114.074 388.652 111.715C390.022 109.42 391.211 107.418 392.191 105.762L395.31 100.533L390.605 105.047C389.099 106.49 387.276 108.252 385.176 110.272C383.251 112.389 381.077 114.768 378.71 117.368C376.231 119.955 373.921 122.906 371.435 126.027C368.95 129.147 366.34 132.467 363.905 136.015C361.329 139.517 358.855 143.213 356.545 147.024C354.071 150.805 351.835 154.726 349.644 158.685C345.171 166.577 341.378 174.686 337.992 182.371C336.463 186.232 334.793 189.962 333.536 193.553C332.194 197.135 330.994 200.548 329.975 203.715C329.505 205.171 329.058 206.565 328.645 207.911H366.034Z" fill="#000505"/>
<path d="M22.0027 214.295C22.0027 213.998 22.0027 213.727 22.0027 213.427C21.9574 210.463 22.0027 207.211 22.1669 203.777C22.2122 200.339 22.6142 196.731 22.835 192.963C23.5936 185.469 24.6071 177.428 26.2999 169.447C27.1095 165.45 27.9984 161.444 29.1307 157.544C30.1102 153.611 31.2765 149.77 32.5786 146.083C33.7506 142.352 35.0924 138.796 36.5418 135.459C37.9912 132.123 39.1744 128.871 40.6974 126.021C42.1298 123.116 43.4603 120.457 44.6209 118.099C45.9911 115.804 47.18 113.801 48.1595 112.146L51.279 106.917L46.5742 111.43C45.0682 112.874 43.2452 114.635 41.1447 116.655C39.2197 118.772 37.0456 121.152 34.6791 123.752C32.1993 126.339 29.8893 129.29 27.4039 132.41C24.9184 135.531 22.3085 138.851 19.874 142.399C17.2979 145.9 14.8238 149.597 12.5138 153.408C10.0397 157.189 7.80332 161.11 5.61227 165.068C1.13957 172.961 -2.6537 181.069 -6.03935 188.754C-7.568 192.616 -9.23818 196.346 -10.4951 199.937C-11.8369 203.519 -13.0372 206.931 -14.0562 210.099C-14.5262 211.555 -14.9734 212.948 -15.3867 214.295H22.0027Z" fill="#000505"/>
<path d="M305.837 51.931C306.907 55.6274 308.572 59.6541 309.557 64.2101C310.435 68.7999 311.657 73.6903 312.433 78.9364C312.999 84.2249 313.871 89.7208 314.177 95.4496C314.324 101.229 314.924 107.11 314.698 113.174C314.579 119.22 314.63 125.317 314.098 131.453C313.758 137.579 313.271 143.685 312.535 149.706C311.969 155.706 311.063 161.612 310.27 167.32C309.478 173.028 308.362 178.524 307.507 183.727C306.449 188.927 305.447 193.834 304.529 198.365C303.754 201.799 303.029 204.932 302.327 207.875H345.276C345.276 205.529 345.22 203.082 345.163 200.499C344.976 195.706 344.778 190.527 344.552 185.044C344.133 179.54 343.912 173.798 343.266 167.837C342.621 161.875 342.134 155.731 341.194 149.482C340.453 143.249 339.416 136.915 338.239 130.61C337.259 124.301 335.668 118.005 334.276 111.84C332.99 105.675 330.879 99.6414 329.322 93.8279C327.561 88.0187 325.268 82.4719 323.422 77.2258C321.322 71.9924 318.842 67.1401 316.827 62.6646C314.709 58.1976 312.003 54.2725 310.033 50.7454C308.301 47.6909 306.257 44.7408 303.918 41.9215L298.16 34.4736C298.16 34.4736 299.564 37.4375 302.027 42.5566C303.256 45.1479 304.824 48.2007 305.837 51.931Z" fill="#000505"/>
<path d="M-38.192 58.3131C-37.122 62.0095 -35.4575 66.0362 -34.4723 70.5921C-33.5948 75.182 -32.3718 80.0724 -31.5962 85.3185C-31.03 90.6069 -30.1582 96.1029 -29.8524 101.832C-29.7052 107.611 -29.1051 113.493 -29.3315 119.556C-29.4504 125.602 -29.3995 131.699 -29.9317 137.835C-30.2714 143.961 -30.7583 150.067 -31.4943 156.088C-32.0605 162.088 -32.9663 167.995 -33.759 173.702C-34.5516 179.41 -35.6669 184.906 -36.5218 190.109C-37.5806 195.309 -38.5826 200.216 -39.4998 204.747C-40.2754 208.181 -41.0001 211.314 -41.7022 214.257H1.24697C1.24697 211.911 1.19031 209.464 1.13369 206.881C0.946859 202.088 0.748727 196.91 0.522262 191.426C0.103301 185.922 -0.117514 180.18 -0.76294 174.219C-1.40837 168.257 -1.89529 162.113 -2.83512 155.864C-3.57679 149.631 -4.61285 143.297 -5.79047 136.992C-6.76994 130.683 -8.36086 124.387 -9.75362 118.222C-11.0388 112.057 -13.1506 106.023 -14.7075 100.21C-16.4683 94.4007 -18.7612 88.854 -20.6069 83.6079C-22.7074 78.3745 -25.1872 73.5222 -27.2027 69.0467C-29.3202 64.5796 -32.0265 60.6546 -33.9967 57.1275C-35.7284 54.073 -37.7727 51.1229 -40.1113 48.3036L-45.8691 40.8557C-45.8691 40.8557 -44.4651 43.8196 -42.0023 48.9387C-40.7737 51.53 -39.2054 54.5828 -38.192 58.3131Z" fill="#000505"/>
<path d="M402.272 98.5943C403.875 101.135 405.89 103.857 407.668 106.999C409.287 110.204 411.161 113.617 412.905 117.275C414.405 121.031 416.143 124.897 417.627 129.004C418.912 133.166 420.52 137.354 421.629 141.753C422.739 146.152 424.041 150.53 424.84 155.036C426.787 163.961 428.101 172.963 429.029 181.41C429.958 189.857 430.462 197.745 430.728 204.495C430.773 205.684 430.79 206.798 430.818 207.912H463.61C463.044 205.922 462.478 203.847 461.844 201.598C459.783 194.642 457.224 186.584 454.025 178.04C450.826 169.495 447.158 160.447 442.827 151.555C440.845 147.084 438.297 142.714 436.033 138.395C433.768 134.077 430.999 129.952 428.61 125.934C426.023 121.95 423.22 118.203 420.735 114.629C417.995 111.123 415.192 107.91 412.735 104.92C410.125 101.99 407.351 99.4793 405.114 97.1844C402.878 94.8895 400.546 93.1069 398.694 91.6165L392.846 86.9885L397.426 92.3447C398.875 94.0469 400.749 96.003 402.272 98.5943Z" fill="#000505"/>
<path d="M58.243 104.978C59.8452 107.518 61.8608 110.241 63.6385 113.383C65.2578 116.588 67.1318 120.001 68.8755 123.659C70.3759 127.415 72.114 131.28 73.5973 135.388C74.8825 139.55 76.4905 143.737 77.6001 148.137C78.7098 152.536 80.012 156.914 80.8103 161.419C82.7579 170.345 84.0714 179.346 84.9999 187.794C85.9284 196.241 86.4323 204.129 86.6984 210.878C86.7436 212.068 86.7606 213.182 86.789 214.295H119.581C119.015 212.305 118.449 210.23 117.815 207.982C115.754 201.025 113.195 192.968 109.996 184.423C106.797 175.879 103.128 166.83 98.7973 157.939C96.8157 153.467 94.268 149.098 92.0033 144.779C89.7386 140.46 86.9701 136.336 84.5809 132.318C81.9935 128.333 79.1911 124.586 76.7056 121.013C73.9654 117.507 71.1629 114.293 68.7057 111.304C66.0957 108.374 63.3215 105.863 61.0851 103.568C58.8488 101.273 56.5162 99.4904 54.6648 98L48.8164 93.3721L53.3966 98.7283C54.846 100.43 56.72 102.387 58.243 104.978Z" fill="#000505"/>
<path d="M358.045 134.276C360.621 135.686 363.237 137.587 366.198 139.476C367.664 140.429 369.181 141.428 370.761 142.44L375.205 145.975C378.223 148.414 381.507 150.836 384.304 153.787C387.225 156.624 390.311 159.457 392.853 162.679L396.872 167.392L400.422 172.363C402.902 175.606 404.821 179.086 406.78 182.427C408.739 185.768 410.177 189.236 411.825 192.449C413.059 195.837 414.565 198.932 415.437 202.035C416.116 204.076 416.688 206.003 417.192 207.883H453.426C452.56 206.287 451.632 204.639 450.596 202.886C448.897 199.923 446.819 196.794 444.521 193.55C442.375 190.252 439.527 186.979 436.917 183.536C433.916 180.217 431.097 176.724 427.677 173.421C424.258 170.118 420.963 166.74 417.101 163.657L411.491 159C409.486 157.557 407.486 156.125 405.489 154.702C401.662 151.78 397.359 149.32 393.323 146.907C389.422 144.366 385.107 142.444 381.201 140.501L375.483 137.74C373.524 136.982 371.638 136.241 369.821 135.538C366.186 134.171 363.027 132.777 359.981 131.833C356.935 130.889 354.28 130.14 352.089 129.513L345.295 127.527L351.279 130.669L358.045 134.276Z" fill="#000505"/>
<path d="M14.0156 140.658C16.5916 142.068 19.2073 143.969 22.1683 145.858C23.6347 146.811 25.152 147.81 26.7316 148.822L31.176 152.357C34.1937 154.796 37.4774 157.218 40.2742 160.169C43.1956 163.006 46.2813 165.839 48.8234 169.061L52.8431 173.774L56.393 178.745C58.8728 181.988 60.792 185.468 62.751 188.809C64.7099 192.15 66.1479 195.618 67.7954 198.831C69.0297 202.219 70.5357 205.314 71.4076 208.417C72.0869 210.458 72.6588 212.385 73.1627 214.265H109.397C108.531 212.669 107.602 211.021 106.566 209.269C104.868 206.305 102.79 203.176 100.491 199.932C98.3456 196.634 95.4978 193.361 92.8878 189.918C89.8872 186.599 87.0676 183.106 83.648 179.803C80.2284 176.5 76.9333 173.122 73.0721 170.039L67.4614 165.382C65.4572 163.939 63.4568 162.507 61.4601 161.084C57.6328 158.162 53.33 155.702 49.2932 153.289C45.3924 150.748 41.0782 148.826 37.1717 146.883L31.4534 144.122C29.4945 143.364 27.6092 142.623 25.7918 141.92C22.157 140.553 18.9978 139.159 15.9519 138.215C12.9059 137.271 10.2506 136.522 8.05959 135.895L1.26562 133.909L7.24994 137.051L14.0156 140.658Z" fill="#000505"/>
<path d="M443.133 52.1284C444.338 55.8757 446.099 59.9405 447.232 64.5726C448.364 69.2048 449.728 74.1629 450.725 79.4768C451.523 84.833 452.678 90.3925 453.284 96.2271C453.771 102.091 454.694 108.053 454.858 114.214C455.118 120.358 455.537 126.556 455.424 132.806C455.616 145.254 455.005 157.724 454.195 169.381C453.386 181.037 452.163 191.894 450.974 201.162C450.649 203.525 450.334 205.774 450.028 207.911H492.366C492.162 205.82 491.947 203.652 491.709 201.374C490.639 191.711 489.201 180.474 487.18 168.483C485.159 156.492 482.713 143.734 479.463 131.07C478.031 124.719 476.066 118.427 474.311 112.245C472.556 106.063 470.235 100.012 468.321 94.182C466.272 88.3558 463.718 82.8006 461.612 77.5333C459.302 72.2915 456.635 67.4307 454.444 62.9298C452.253 58.4289 449.383 54.4953 447.299 50.9471C445.487 47.8756 443.385 44.9042 441.009 42.0554L435.127 34.5271C435.127 34.5271 436.576 37.491 439.135 42.7117C440.766 45.7753 442.102 48.9223 443.133 52.1284Z" fill="#000505"/>
<path d="M99.1032 58.512C100.309 62.2592 102.07 66.324 103.202 70.9562C104.335 75.5883 105.699 80.5465 106.695 85.8603C107.494 91.2165 108.649 96.776 109.255 102.611C109.741 108.475 110.664 114.437 110.828 120.597C111.089 126.741 111.508 132.94 111.395 139.19C111.587 151.638 110.976 164.107 110.166 175.764C109.356 187.421 108.134 198.277 106.945 207.546C106.62 209.908 106.305 212.158 105.999 214.295H148.337C148.133 212.203 147.918 210.035 147.68 207.757C146.61 198.095 145.172 186.858 143.151 174.866C141.13 162.875 138.684 150.118 135.434 137.453C134.002 131.102 132.037 124.81 130.282 118.628C128.527 112.447 126.205 106.396 124.292 100.566C122.242 94.7394 119.689 89.1842 117.583 83.9169C115.273 78.675 112.606 73.8142 110.415 69.3133C108.224 64.8124 105.354 60.8789 103.27 57.3306C101.458 54.2591 99.3555 51.2878 96.9801 48.4389L91.0977 40.9106C91.0977 40.9106 92.5471 43.8745 95.1061 49.0952C96.7371 52.1588 98.0728 55.3058 99.1032 58.512Z" fill="#000505"/>
<path d="M478.59 98.5943C480.193 101.135 482.208 103.857 483.975 106.999C485.611 110.204 487.468 113.617 489.229 117.275C490.723 121.031 492.461 124.897 493.945 129.004C495.23 133.166 496.826 137.354 497.947 141.753C499.068 146.152 500.359 150.53 501.158 155.036C503.094 163.961 504.413 172.963 505.342 181.41C506.27 189.857 506.768 197.745 507.04 204.495C507.08 205.684 507.102 206.798 507.125 207.912H539.923C539.357 205.922 538.79 203.847 538.162 201.598C536.09 194.642 533.536 186.584 530.343 178.04C527.15 169.495 523.47 160.447 519.145 151.555C517.157 147.084 514.615 142.714 512.351 138.395C510.086 134.077 507.306 129.952 504.928 125.934C502.341 121.95 499.538 118.203 497.053 114.629C494.301 111.123 491.504 107.91 489.047 104.92C486.443 101.99 483.669 99.4793 481.432 97.1844C479.196 94.8895 476.858 93.1069 475.007 91.6165C471.276 88.6526 469.152 86.9885 469.152 86.9885C469.152 86.9885 470.851 88.9362 473.738 92.3447C475.193 94.0469 477.056 96.003 478.59 98.5943Z" fill="#000505"/>
<path d="M134.561 104.978C136.163 107.518 138.179 110.241 139.945 113.383C141.581 116.588 143.438 120.001 145.199 123.659C146.694 127.415 148.432 131.28 149.915 135.388C151.201 139.55 152.797 143.737 153.918 148.137C155.039 152.536 156.33 156.914 157.128 161.419C159.065 170.345 160.384 179.346 161.312 187.794C162.241 196.241 162.739 204.129 163.011 210.878C163.05 212.068 163.073 213.182 163.096 214.295H195.893C195.327 212.305 194.761 210.23 194.133 207.982C192.061 201.025 189.507 192.968 186.314 184.423C183.121 175.879 179.441 166.83 175.115 157.939C173.128 153.467 170.586 149.098 168.321 144.779C166.057 140.46 163.277 136.336 160.899 132.318C158.312 128.333 155.509 124.586 153.024 121.013C150.272 117.507 147.475 114.293 145.018 111.304C142.414 108.374 139.64 105.863 137.403 103.568C135.167 101.273 132.829 99.4904 130.977 98C127.246 95.0361 125.123 93.3721 125.123 93.3721C125.123 93.3721 126.822 95.3198 129.709 98.7283C131.164 100.43 133.027 102.387 134.561 104.978Z" fill="#000505"/>
<path d="M511.995 207.912C511.995 204.004 512.301 199.689 512.38 195.078C512.584 192.157 512.946 189.151 513.28 186.072C513.688 183.007 513.739 179.814 514.469 176.757C515.086 173.649 515.687 170.533 516.281 167.472C516.759 164.451 517.492 161.455 518.478 158.504C519.372 155.608 520.227 152.813 521.048 150.163C521.869 147.512 522.526 144.925 523.686 142.723C527.876 133.632 530.662 127.578 530.662 127.578L519.202 141.283C517.334 143.32 515.941 145.734 514.277 148.236C512.612 150.738 510.88 153.423 509.085 156.179C507.166 158.996 505.481 161.899 504.041 164.872C502.467 167.895 500.876 170.961 499.274 174.026C497.53 177.092 496.482 180.263 495.084 183.341C493.799 186.441 492.434 189.489 491.291 192.479C489.451 198.051 487.418 203.263 486.133 207.916L511.995 207.912Z" fill="#000505"/>
<path d="M167.966 214.294C167.966 210.386 168.272 206.071 168.351 201.46C168.555 198.539 168.917 195.533 169.251 192.454C169.659 189.389 169.71 186.196 170.44 183.139C171.057 180.031 171.657 176.915 172.252 173.854C172.729 170.833 173.463 167.837 174.448 164.886C175.343 161.99 176.198 159.195 177.019 156.545C177.84 153.894 178.497 151.307 179.657 149.105C183.847 140.014 186.632 133.96 186.632 133.96L175.173 147.666C173.305 149.702 171.912 152.116 170.248 154.618C168.583 157.12 166.851 159.805 165.056 162.561C163.137 165.378 161.452 168.282 160.011 171.254C158.437 174.277 156.846 177.343 155.244 180.408C153.5 183.474 152.453 186.645 151.055 189.723C149.769 192.823 148.405 195.871 147.261 198.861C145.421 204.433 143.389 209.645 142.104 214.298L167.966 214.294Z" fill="#000505"/>
<path d="M589.519 207.911C589.519 207.615 589.519 207.344 589.519 207.043C589.474 204.079 589.519 200.827 589.689 197.393C589.74 193.955 590.148 190.348 590.363 186.579C591.116 179.085 592.135 171.044 593.828 163.063C594.637 159.066 595.492 155.06 596.658 151.161C597.638 147.227 598.799 143.387 600.112 139.699C601.244 135.969 602.609 132.412 604.075 129.075C605.542 125.739 606.713 122.487 608.231 119.637C609.748 116.788 610.988 114.074 612.16 111.715C613.519 109.42 614.725 107.418 615.699 105.762C617.686 102.438 618.812 100.533 618.812 100.533L614.119 105.047C612.613 106.49 610.79 108.252 608.684 110.272C606.759 112.389 604.585 114.768 602.212 117.368C599.744 119.955 597.428 122.906 594.943 126.027C592.367 129.13 589.847 132.467 587.413 136.015C584.843 139.517 582.363 143.213 580.053 147.024C577.573 150.805 575.331 154.726 573.14 158.685C568.679 166.577 564.868 174.686 561.5 182.371C559.965 186.232 558.284 189.962 557.038 193.553C555.702 197.135 554.491 200.548 553.477 203.715C553.007 205.171 552.56 206.565 552.152 207.911H589.519Z" fill="#000505"/>
<path d="M245.49 214.295C245.49 213.998 245.49 213.727 245.49 213.427C245.445 210.463 245.49 207.211 245.66 203.777C245.711 200.339 246.118 196.731 246.333 192.963C247.086 185.469 248.106 177.428 249.798 169.447C250.608 165.45 251.463 161.444 252.629 157.544C253.609 153.611 254.769 149.77 256.083 146.083C257.215 142.352 258.58 138.796 260.046 135.459C261.512 132.123 262.684 128.871 264.201 126.021C265.719 123.172 266.959 120.457 268.131 118.099C269.49 115.804 270.695 113.801 271.669 112.146C273.656 108.822 274.783 106.917 274.783 106.917L270.09 111.43C268.584 112.874 266.761 114.635 264.654 116.655C262.73 118.772 260.555 121.152 258.183 123.752C255.715 126.339 253.399 129.29 250.914 132.41C248.338 135.514 245.818 138.851 243.384 142.399C240.813 145.9 238.333 149.597 236.024 153.408C233.544 157.189 231.302 161.11 229.111 165.068C224.649 172.961 220.839 181.069 217.47 188.754C215.936 192.616 214.255 196.346 213.009 199.937C211.673 203.519 210.461 206.931 209.448 210.099C208.978 211.555 208.531 212.948 208.123 214.295H245.49Z" fill="#000505"/>
<path d="M529.319 51.931C530.412 55.6274 532.059 59.6541 533.044 64.2101C533.933 68.7999 535.151 73.6903 535.937 78.9364C536.47 84.2249 537.359 89.7208 537.67 95.4496C537.811 101.229 538.417 107.11 538.202 113.174C537.987 119.237 538.128 125.317 537.591 131.453C537.257 137.579 536.764 143.685 536.017 149.706C535.451 155.706 534.55 161.612 533.752 167.32C532.954 173.028 531.855 178.524 530.995 183.727C529.936 188.927 528.934 193.834 528.006 198.365C527.253 201.799 526.517 204.932 525.814 207.875H568.769C568.769 205.529 568.707 203.082 568.656 200.499C568.464 195.706 568.26 190.527 568.039 185.044C567.614 179.54 567.393 173.798 566.754 167.837C566.114 161.875 565.621 155.731 564.693 149.482C563.94 143.249 562.909 136.915 561.726 130.61C560.747 124.301 559.156 118.005 557.763 111.84C556.489 105.675 554.406 99.6414 552.815 93.8279C551.06 88.0187 548.772 82.4719 546.927 77.2258C544.815 71.9924 542.341 67.1401 540.331 62.6646C538.208 58.1976 535.507 54.2725 533.537 50.7454C531.64 47.1845 529.285 44.2968 527.428 41.9215L521.676 34.4736L525.537 42.5566C526.743 45.1479 528.311 48.2007 529.319 51.931Z" fill="#000505"/>
<path d="M185.29 58.3131C186.382 62.0095 188.03 66.0362 189.015 70.5921C189.904 75.182 191.121 80.0724 191.908 85.3185C192.44 90.6069 193.329 96.1029 193.641 101.832C193.782 107.611 194.388 113.493 194.173 119.556C193.958 125.619 194.099 131.699 193.561 137.835C193.227 143.961 192.735 150.067 191.987 156.088C191.421 162.088 190.521 167.995 189.723 173.702C188.925 179.41 187.826 184.906 186.966 190.109C185.907 195.309 184.905 200.216 183.976 204.747C183.223 208.181 182.487 211.314 181.785 214.257H224.74C224.74 211.911 224.678 209.464 224.627 206.881C224.434 202.088 224.23 196.91 224.01 191.426C223.585 185.922 223.364 180.18 222.724 174.219C222.085 168.257 221.592 162.113 220.664 155.864C219.911 149.631 218.88 143.297 217.697 136.992C216.717 130.683 215.126 124.387 213.734 118.222C212.46 112.057 210.376 106.023 208.785 100.21C207.03 94.4007 204.743 88.854 202.897 83.6079C200.786 78.3745 198.311 73.5222 196.302 69.0467C194.178 64.5796 191.478 60.6546 189.508 57.1275C187.611 53.5666 185.256 50.6789 183.399 48.3036L177.646 40.8557L181.508 48.9387C182.714 51.53 184.282 54.5828 185.29 58.3131Z" fill="#000505"/>
<path d="M625.794 98.5943C627.385 101.135 629.418 103.857 631.173 106.999C632.809 110.204 634.672 113.617 636.427 117.275C637.921 121.031 639.66 124.897 641.132 129.004C642.428 133.166 644.03 137.354 645.146 141.753C646.261 146.152 647.558 150.53 648.35 155.036C650.298 163.961 651.628 172.963 652.545 181.41C653.463 189.857 653.972 197.745 654.244 204.495C654.284 205.684 654.301 206.798 654.335 207.912H687.132C686.566 205.922 686 203.847 685.36 201.598C683.294 194.642 680.735 186.584 677.542 178.04C674.348 169.495 670.668 160.447 666.349 151.555C664.356 147.084 661.819 142.714 659.555 138.395C657.29 134.077 654.521 129.952 652.149 125.934C649.556 121.95 646.748 118.203 644.262 114.629C641.517 111.123 638.72 107.91 636.263 104.92C633.653 101.99 630.884 99.4793 628.653 97.1844C626.423 94.8895 624.067 93.1069 622.216 91.6165C618.496 88.6526 616.379 86.9885 616.379 86.9885C616.379 86.9885 618.032 88.9362 620.959 92.3447C622.397 94.0469 624.249 96.003 625.794 98.5943Z" fill="#000505"/>
<path d="M281.765 104.978C283.356 107.518 285.388 110.241 287.143 113.383C288.78 116.588 290.642 120.001 292.397 123.659C293.892 127.415 295.63 131.28 297.102 135.388C298.399 139.55 300.001 143.737 301.116 148.137C302.232 152.536 303.528 156.914 304.321 161.419C306.268 170.345 307.599 179.346 308.516 187.794C309.433 196.241 309.943 204.129 310.215 210.878C310.254 212.068 310.271 213.182 310.305 214.295H343.103C342.537 212.305 341.971 210.23 341.331 207.982C339.264 201.025 336.705 192.968 333.512 184.423C330.319 175.879 326.639 166.83 322.319 157.939C320.326 153.467 317.79 149.098 315.525 144.779C313.261 140.46 310.492 136.336 308.12 132.318C305.527 128.333 302.719 124.586 300.233 121.013C297.487 117.507 294.69 114.293 292.233 111.304C289.623 108.374 286.855 105.863 284.624 103.568C282.393 101.273 280.038 99.4904 278.187 98C274.467 95.0361 272.35 93.3721 272.35 93.3721C272.35 93.3721 274.003 95.3198 276.93 98.7283C278.368 100.43 280.219 102.387 281.765 104.978Z" fill="#000505"/>
<path d="M581.533 134.276C584.103 135.686 586.725 137.587 589.697 139.476C591.152 140.429 592.675 141.428 594.226 142.44L598.682 145.975C601.683 148.414 604.978 150.836 607.775 153.787C610.69 156.624 613.782 159.457 616.318 162.679C617.654 164.241 619.002 165.812 620.338 167.392L623.899 172.363C626.367 175.606 628.292 179.086 630.251 182.427C632.21 185.768 633.648 189.236 635.285 192.449C636.536 195.837 638.036 198.932 638.908 202.035C639.593 204.076 640.159 206.003 640.663 207.883H676.898C676.031 206.287 675.097 204.639 674.067 202.886C672.368 199.923 670.296 196.794 667.992 193.55C665.852 190.252 663.015 186.979 660.394 183.536C657.393 180.217 654.579 176.724 651.154 173.421C647.729 170.118 644.445 166.74 640.567 163.657L634.967 159C632.959 157.557 630.959 156.125 628.966 154.702C625.145 151.78 620.836 149.32 616.805 146.907C612.893 144.366 608.584 142.444 604.672 140.501L598.965 137.74C597.006 136.982 595.115 136.241 593.304 135.538C589.657 134.171 586.476 132.777 583.452 131.833L575.571 129.513L568.777 127.527L574.756 130.669L581.533 134.276Z" fill="#000505"/>
<path d="M237.502 140.658C240.072 142.068 242.693 143.969 245.666 145.858C247.121 146.811 248.644 147.81 250.195 148.822L254.651 152.357C257.651 154.796 260.947 157.218 263.743 160.169C266.659 163.006 269.75 165.839 272.287 169.061C273.623 170.623 274.97 172.194 276.307 173.774L279.868 178.745C282.336 181.988 284.261 185.468 286.22 188.809C288.179 192.15 289.617 195.618 291.253 198.831C292.505 202.219 294.005 205.314 294.877 208.417C295.562 210.458 296.128 212.385 296.632 214.265H332.866C332 212.669 331.066 211.021 330.035 209.269C328.337 206.305 326.265 203.176 323.961 199.932C321.82 196.634 318.984 193.361 316.363 189.918C313.362 186.599 310.548 183.106 307.123 179.803C303.698 176.5 300.414 173.122 296.536 170.039L290.936 165.382C288.928 163.939 286.928 162.507 284.935 161.084C281.113 158.162 276.805 155.702 272.774 153.289C268.862 150.748 264.553 148.826 260.641 146.883L254.934 144.122C252.975 143.364 251.084 142.623 249.272 141.92C245.626 140.553 242.444 139.159 239.421 138.215L231.54 135.895L224.746 133.909L230.725 137.051L237.502 140.658Z" fill="#000505"/>
<path d="M666.632 52.1284C667.833 55.8757 669.582 59.9405 670.726 64.5726C671.869 69.2048 673.211 74.1629 674.219 79.4768C675.017 84.833 676.167 90.3925 676.784 96.2271C677.265 102.091 678.176 108.053 678.346 114.214C678.612 120.358 679.031 126.556 678.912 132.806C679.111 145.254 678.482 157.724 677.673 169.381C676.863 181.037 675.64 191.894 674.451 201.162C674.13 203.525 673.815 205.774 673.506 207.911H715.849C715.645 205.82 715.424 203.652 715.192 201.374C714.122 191.711 712.695 180.474 710.663 168.483C708.63 156.492 706.218 143.734 702.957 131.07C701.531 124.719 699.56 118.427 697.805 112.245C696.05 106.063 693.723 100.012 691.815 94.182C689.766 88.3558 687.212 82.8006 685.106 77.5333C682.796 72.2915 680.118 67.4307 677.939 62.9298C675.759 58.4289 672.871 54.4953 670.788 50.9471C668.974 47.8776 666.876 44.9064 664.509 42.0554L658.621 34.5271C658.621 34.5271 660.082 37.491 662.618 42.7117C664.255 45.7748 665.597 48.9218 666.632 52.1284Z" fill="#000505"/>
<path d="M322.603 58.512C323.803 62.2592 325.553 66.324 326.696 70.9562C327.84 75.5883 329.182 80.5465 330.19 85.8603C330.988 91.2165 332.137 96.776 332.754 102.611C333.236 108.475 334.147 114.437 334.317 120.597C334.583 126.741 335.002 132.94 334.883 139.19C335.081 151.638 334.453 164.107 333.643 175.764C332.834 187.421 331.611 198.277 330.422 207.546C330.101 209.908 329.786 212.158 329.476 214.295H371.82C371.616 212.203 371.395 210.035 371.163 207.757C370.093 198.095 368.666 186.858 366.634 174.866C364.601 162.875 362.189 150.118 358.928 137.453C357.501 131.102 355.531 124.81 353.776 118.628C352.021 112.447 349.694 106.396 347.786 100.566C345.736 94.7394 343.183 89.1842 341.077 83.9169C338.767 78.675 336.089 73.8142 333.909 69.3133C331.73 64.8124 328.842 60.8789 326.759 57.3306C324.945 54.2611 322.847 51.29 320.48 48.4389L314.592 40.9106C314.592 40.9106 316.053 43.8745 318.589 49.0952C320.226 52.1584 321.568 55.3054 322.603 58.512Z" fill="#000505"/>
<path d="M702.073 98.5943C703.681 101.135 705.685 103.857 707.458 106.999C709.088 110.204 710.968 113.617 712.712 117.275C714.212 121.031 715.944 124.897 717.422 129.004C718.707 133.166 720.315 137.354 721.425 141.753C722.534 146.152 723.831 150.53 724.641 155.036C726.583 163.961 727.89 172.963 728.825 181.41C729.759 189.857 730.257 197.745 730.523 204.495C730.523 205.684 730.58 206.798 730.608 207.912H763.4C762.834 205.922 762.268 203.847 761.628 201.598C759.562 194.642 757.008 186.584 753.809 178.04C750.611 169.495 746.942 160.447 742.611 151.555C740.629 147.084 738.081 142.714 735.845 138.395C733.609 134.077 730.806 129.952 728.423 125.934C725.83 121.95 723.033 118.203 720.547 114.629C717.801 111.123 714.993 107.91 712.542 104.92C709.932 101.99 707.157 99.4793 704.932 97.1844C702.707 94.8895 700.352 93.1069 698.501 91.6165L692.652 86.9885C692.652 86.9885 694.351 88.9362 697.221 92.3447C698.671 94.0469 700.528 96.003 702.073 98.5943Z" fill="#000505"/>
<path d="M358.044 104.978C359.652 107.518 361.656 110.241 363.428 113.383C365.059 116.588 366.938 120.001 368.682 123.659C370.183 127.415 371.915 131.28 373.393 135.388C374.678 139.55 376.286 143.737 377.396 148.137C378.505 152.536 379.802 156.914 380.611 161.419C382.553 170.345 383.861 179.346 384.795 187.794C385.729 196.241 386.228 204.129 386.494 210.878C386.494 212.068 386.55 213.182 386.579 214.295H419.371C418.805 212.305 418.239 210.23 417.599 207.982C415.532 201.025 412.979 192.968 409.78 184.423C406.581 175.879 402.912 166.83 398.581 157.939C396.6 153.467 394.052 149.098 391.816 144.779C389.579 140.46 386.777 136.336 384.393 132.318C381.8 128.333 379.003 124.586 376.518 121.013C373.772 117.507 370.964 114.293 368.512 111.304C365.902 108.374 363.128 105.863 360.903 103.568C358.678 101.273 356.323 99.4904 354.472 98L348.623 93.3721C348.623 93.3721 350.322 95.3198 353.192 98.7283C354.641 100.43 356.498 102.387 358.044 104.978Z" fill="#000505"/>
</g>
<g clip-path="url(#clip1_457_459)">
<path d="M738.604 38.2565H738.979C740.683 38.0132 741.132 37.9571 738.604 38.2565Z" fill="black"/>
<path d="M1311.07 108.677L1309.47 109.295L1310.24 109.014L1311.07 108.677Z" fill="black"/>
<g filter="url(#filter1_f_457_459)">
<path d="M1487.6 125.005C1483.32 126.521 1477.96 129.646 1473.71 131.573C1470.9 132.865 1468.22 134.418 1465.55 135.915L1461.15 139.134C1461.63 138.703 1460.94 139.134 1458.95 140.294C1454.84 142.795 1450.94 145.617 1447.27 148.734C1441.24 148.472 1435.17 148.734 1429.14 148.603C1423.11 148.472 1416.79 147.518 1410.61 147.181C1400.36 146.619 1390.01 148.191 1379.82 149.595C1372.93 150.549 1366.1 151.784 1359.22 153.057L1348.96 154.928C1345.61 155.804 1342.31 156.86 1339.08 158.091C1338.54 158.286 1338.01 158.517 1337.5 158.783H1337.17L1338.31 158.353L1337.15 158.783H1330.8C1330.03 158.783 1328.25 158.634 1326.77 158.503C1325.46 157.866 1324.15 157.268 1322.8 156.631C1306.93 149.773 1289.81 146.245 1272.51 146.264C1265.66 146.152 1258.86 146.451 1252.02 146.114C1248.64 145.946 1245.25 145.553 1241.88 145.197L1238.13 144.767L1237.46 144.28C1237.96 144.149 1237.68 143.943 1236.59 143.644L1233.17 141.136C1231.05 139.709 1228.82 138.457 1226.5 137.393C1216.56 132.434 1206.04 130.806 1194.99 129.739C1191.73 129.421 1188.47 129.159 1185.19 128.86C1193.06 129.552 1183.53 128.074 1182.11 127.662C1175.14 125.604 1168.08 123.751 1161.08 121.786C1155.83 120.326 1150.55 119.203 1145.39 117.557C1143.94 117.014 1141.81 116.228 1141.28 116.003C1136.8 114.045 1132.2 112.345 1127.52 110.913C1113.01 106.965 1097.43 107.47 1082.49 107.357C1068.86 107.357 1055.11 106.702 1041.52 107.713C1036.29 108.106 1031.11 108.911 1025.96 109.715C1032.87 108.649 1022.21 109.903 1021.43 109.903C1016.27 110.058 1011.13 110.684 1006.09 111.774L1001.03 113.047H1000.68C987.824 114.341 974.884 114.56 961.993 113.702C964.296 113.795 962.348 113.589 960.12 113.29C958.573 112.637 957.072 111.88 955.626 111.025C949.073 106.328 941.002 103.652 933.325 101.07C908.626 92.7419 878.367 92.3302 852.714 96.1291C848.632 96.7778 848.719 96.7155 852.976 95.942L844.007 96.0729C850.616 95.9794 831.835 97.5514 830.899 97.7759C828.577 97.7759 826.236 97.7759 823.915 97.7759C820.731 97.7759 817.548 97.776 814.346 97.5701H813.148L811.594 97.2519C806.257 96.204 800.883 95.6987 795.584 94.4448C788.955 92.8729 781.69 90.0658 774.78 90.4026C772.402 90.5149 770.062 90.6833 767.702 90.9266C763.414 91.4506 751.131 92.8916 758.227 92.1992L750.007 93.2285C742.086 96.4285 740.176 97.1771 744.24 95.5303C740.263 96.7865 736.367 98.2864 732.574 100.022C736.319 98.1502 726.62 101.163 727.219 100.995C724.391 101.762 721.601 102.585 718.792 103.446C713.043 105.128 707.448 107.3 702.071 109.94C697.277 112.354 692.896 116.939 688.533 118.212C684.17 119.484 684.526 118.81 678.983 116.827C672.587 114.713 665.817 113.974 659.116 114.656C632.77 116.827 609.401 127.606 586.388 138.984C581.707 141.323 577.138 143.85 572.382 146.058C571.97 146.245 566.202 146.919 565.154 147.181C561.914 147.985 558.712 148.865 555.492 149.67C544.669 152.346 534.07 157.604 522.667 155.976C510.57 154.236 499.129 149.221 487.089 148.004C482.165 147.499 477.315 148.004 472.446 147.312C464.863 146.264 456.98 144.318 449.34 143.812C437.318 143.008 426.589 137.206 414.53 136.589C402.471 135.971 390.637 136.065 379.346 139.751C370.826 139.751 362.006 136.776 353.636 135.765C344.274 134.624 340.323 131.461 331.691 127.98C325.455 125.491 318.396 123.451 311.58 125.473C309.219 126.119 306.92 126.971 304.708 128.018L302.629 129.346C301.599 130.039 300.757 130.619 300.12 131.087C296.001 132.546 292.143 135.391 288.099 136.925C282.986 138.936 277.759 140.642 272.445 142.034C266.247 143.625 259.974 138.292 254.525 136.008C242.222 130.993 230.182 130.881 217.281 134.137C212.618 135.316 208.78 137.244 203.949 137.337C199.694 137.305 195.451 136.885 191.272 136.083C186.253 135.223 180.711 136.402 175.861 135.297C171.479 134.287 166.499 132.49 162.154 131.049C159.413 129.914 156.806 128.477 154.384 126.764C150.863 124.556 146.744 123.564 143.542 120.869C135.378 113.982 123.918 111.512 113.282 111.512C91.7858 111.512 71.3569 122.46 52.9127 131.611C44.5427 135.765 36.9965 140.275 29.0758 145.197C20.481 150.549 10.9875 152.87 0.988315 155.003C-2.69461 155.977 -6.30999 157.189 -9.83473 158.634V279.17H-10.3965V677.571H1487.6V125.005Z" fill="black"/>
</g>
</g>
</g>
<defs>
<filter id="filter0_f_457_459" x="-148.406" y="18.4736" width="927.806" height="211.825" filterUnits="userSpaceOnUse" color-interpolation-filters="sRGB">
<feFlood flood-opacity="0" result="BackgroundImageFix"/>
<feBlend mode="normal" in="SourceGraphic" in2="BackgroundImageFix" result="shape"/>
<feGaussianBlur stdDeviation="8" result="effect1_foregroundBlur_457_459"/>
</filter>
<filter id="filter1_f_457_459" x="-32.3965" y="68.3748" width="1542" height="631.196" filterUnits="userSpaceOnUse" color-interpolation-filters="sRGB">
<feFlood flood-opacity="0" result="BackgroundImageFix"/>
<feBlend mode="normal" in="SourceGraphic" in2="BackgroundImageFix" result="shape"/>
<feGaussianBlur stdDeviation="11" result="effect1_foregroundBlur_457_459"/>
</filter>
<clipPath id="clip0_457_459">
<rect width="1440" height="558" fill="white"/>
</clipPath>
<clipPath id="clip1_457_459">
<rect width="1498" height="587" fill="white" transform="translate(-39.2695 37.6389)"/>
</clipPath>
</defs>
</svg>
