<svg width="33" height="33" viewBox="0 0 33 33" fill="none" xmlns="http://www.w3.org/2000/svg">
<g id="instagram" clip-path="url(#clip0_339_365)">
<path id="Vector" d="M16.0898 12.7332C15.3051 12.7332 14.5379 12.9659 13.8853 13.4019C13.2328 13.8379 12.7242 14.4576 12.4239 15.1827C12.1236 15.9077 12.045 16.7056 12.1981 17.4753C12.3512 18.245 12.7291 18.952 13.284 19.507C13.839 20.0619 14.546 20.4398 15.3157 20.5929C16.0854 20.746 16.8833 20.6675 17.6083 20.3671C18.3334 20.0668 18.9531 19.5582 19.3891 18.9057C19.8251 18.2531 20.0578 17.486 20.0578 16.7012C20.0578 16.1801 19.9552 15.6641 19.7558 15.1827C19.5564 14.7013 19.2641 14.2638 18.8956 13.8954C18.5272 13.5269 18.0898 13.2346 17.6083 13.0352C17.1269 12.8358 16.6109 12.7332 16.0898 12.7332ZM31.9779 8.81317C31.9694 7.57759 31.7419 6.35329 31.3059 5.19717C30.9847 4.35119 30.4878 3.58292 29.848 2.94307C29.2081 2.30322 28.4398 1.80632 27.5939 1.48517C26.4377 1.04911 25.2134 0.821589 23.9778 0.813172C21.9138 0.701172 21.3058 0.701172 16.0898 0.701172C10.8738 0.701172 10.2658 0.701172 8.20185 0.813172C6.96626 0.821589 5.74196 1.04911 4.58584 1.48517C3.73986 1.80632 2.97159 2.30322 2.33174 2.94307C1.69189 3.58292 1.19499 4.35119 0.873844 5.19717C0.437786 6.35329 0.210261 7.57759 0.201844 8.81317C0.0898436 10.8772 0.0898438 11.4852 0.0898438 16.7012C0.0898438 21.9172 0.0898436 22.5252 0.201844 24.5892C0.219066 25.8291 0.446283 27.0572 0.873844 28.2212C1.19357 29.0633 1.69005 29.8271 2.32984 30.4612C2.96695 31.1049 3.73687 31.6018 4.58584 31.9172C5.74196 32.3532 6.96626 32.5808 8.20185 32.5892C10.2658 32.7012 10.8738 32.7012 16.0898 32.7012C21.3058 32.7012 21.9138 32.7012 23.9778 32.5892C25.2134 32.5808 26.4377 32.3532 27.5939 31.9172C28.4428 31.6018 29.2127 31.1049 29.8499 30.4612C30.4896 29.8271 30.9861 29.0633 31.3059 28.2212C31.7415 27.0594 31.969 25.8299 31.9779 24.5892C32.0899 22.5252 32.0899 21.9172 32.0899 16.7012C32.0899 11.4852 32.0899 10.8772 31.9779 8.81317ZM27.9138 21.6132C27.8625 22.6005 27.6518 23.5731 27.2899 24.4932C26.9792 25.2607 26.5175 25.9579 25.932 26.5433C25.3466 27.1288 24.6493 27.5906 23.8819 27.9012C22.9531 28.2429 21.9751 28.432 20.9858 28.4612C19.7218 28.4612 19.3858 28.4612 16.0898 28.4612C12.7938 28.4612 12.4578 28.4612 11.1938 28.4612C10.2046 28.432 9.22663 28.2429 8.29785 27.9012C7.50441 27.6063 6.78789 27.1359 6.20185 26.5252C5.62211 25.9512 5.1744 25.2578 4.88984 24.4932C4.54674 23.5654 4.36282 22.5863 4.34584 21.5972C4.34584 20.3332 4.34584 19.9972 4.34584 16.7012C4.34584 13.4052 4.34584 13.0692 4.34584 11.8052C4.36282 10.8161 4.54674 9.83699 4.88984 8.90917C5.1847 8.11574 5.65508 7.39922 6.26585 6.81317C6.84238 6.23657 7.53507 5.78932 8.29785 5.50117C9.22663 5.15942 10.2046 4.97031 11.1938 4.94117C12.4578 4.94117 12.7938 4.94117 16.0898 4.94117C19.3858 4.94117 19.7218 4.94117 20.9858 4.94117C21.9751 4.97031 22.9531 5.15942 23.8819 5.50117C24.6753 5.79602 25.3918 6.26641 25.9778 6.87717C26.5576 7.45117 27.0053 8.14459 27.2899 8.90917C27.6316 9.83795 27.8207 10.8159 27.8499 11.8052C27.8499 13.0692 27.8499 13.4052 27.8499 16.7012C27.8499 19.9972 27.9618 20.3332 27.9138 21.5972V21.6132ZM25.3539 9.70917C25.1633 9.19235 24.863 8.723 24.4735 8.33352C24.084 7.94403 23.6147 7.64367 23.0978 7.45317C22.3882 7.20719 21.6408 7.08804 20.8898 7.10117C19.6418 7.10117 19.2898 7.10117 16.0898 7.10117C12.8898 7.10117 12.5378 7.10117 11.2898 7.10117C10.5351 7.10855 9.78756 7.24939 9.08185 7.51717C8.57293 7.69902 8.10855 7.98711 7.71958 8.3623C7.3306 8.73748 7.02594 9.19115 6.82585 9.69317C6.59349 10.4058 6.47997 11.1517 6.48985 11.9012C6.48985 13.1492 6.48985 13.5012 6.48985 16.7012C6.48985 19.9012 6.48985 20.2532 6.48985 21.5012C6.50571 22.2551 6.64628 23.0012 6.90585 23.7092C7.09635 24.226 7.3967 24.6953 7.78619 25.0848C8.17567 25.4743 8.64502 25.7747 9.16185 25.9652C9.84451 26.2162 10.5629 26.3567 11.2898 26.3812C12.5378 26.3812 12.8898 26.3812 16.0898 26.3812C19.2898 26.3812 19.6418 26.3812 20.8898 26.3812C21.6446 26.3738 22.3921 26.233 23.0978 25.9652C23.6147 25.7747 24.084 25.4743 24.4735 25.0848C24.863 24.6953 25.1633 24.226 25.3539 23.7092C25.6216 23.0035 25.7625 22.2559 25.7698 21.5012C25.7698 20.2532 25.7698 19.9012 25.7698 16.7012C25.7698 13.5012 25.7698 13.1492 25.7698 11.9012C25.7703 11.1457 25.6292 10.3967 25.3539 9.69317V9.70917ZM16.0898 22.8132C15.288 22.8132 14.494 22.655 13.7533 22.3476C13.0127 22.0403 12.3399 21.5898 11.7737 21.022C11.2074 20.4543 10.7587 19.7804 10.4533 19.0389C10.1479 18.2975 9.99174 17.5031 9.99384 16.7012C9.99385 15.4917 10.3527 14.3093 11.025 13.3039C11.6973 12.2984 12.6528 11.515 13.7706 11.0529C14.8884 10.5908 16.1181 10.4707 17.3041 10.7078C18.4902 10.9449 19.5792 11.5286 20.4333 12.385C21.2875 13.2414 21.8683 14.332 22.1024 15.5186C22.3364 16.7053 22.2131 17.9347 21.748 19.0512C21.2829 20.1678 20.4971 21.1212 19.4898 21.7909C18.4826 22.4606 17.2994 22.8163 16.0898 22.8132ZM22.4898 11.7892C22.1362 11.7517 21.8088 11.5847 21.5709 11.3203C21.3331 11.0559 21.2014 10.7128 21.2014 10.3572C21.2014 10.0015 21.3331 9.65842 21.5709 9.39402C21.8088 9.12962 22.1362 8.96261 22.4898 8.92517C22.8435 8.96261 23.1709 9.12962 23.4088 9.39402C23.6466 9.65842 23.7783 10.0015 23.7783 10.3572C23.7783 10.7128 23.6466 11.0559 23.4088 11.3203C23.1709 11.5847 22.8435 11.7517 22.4898 11.7892Z" fill="#D131FF"/>
</g>
<defs>
<clipPath id="clip0_339_365">
<rect width="32" height="32" fill="white" transform="translate(0.0898438 0.701172)"/>
</clipPath>
</defs>
</svg>
