<svg width="1440" height="760" viewBox="0 0 1440 760" fill="none" xmlns="http://www.w3.org/2000/svg">
<g clip-path="url(#clip0_452_58)">
<g clip-path="url(#clip1_452_58)">
<path d="M-176.869 251.759C-171.312 252.082 -165.874 253.505 -160.871 255.943C-155.868 258.382 -151.399 261.789 -147.722 265.967V216.768H-88.5711V74.3721L-53.5673 1.08008L-17.7525 74.3721V229.265C-17.7525 229.265 -10.1841 165.97 29.7302 165.97C69.6445 165.97 66.4009 195.94 80.5466 194.274C94.6923 192.608 94.7148 174.301 103.882 175.135C113.05 175.968 128.863 218.434 128.863 218.434H192.549V144.377L239.199 146.854L254.2 172.68L280.014 143.521L300.85 158.517V171.847H319.162V146.854H454.132L474.134 169.37C474.134 169.37 494.97 137.712 531.618 172.703V244.329H544.931C544.931 244.329 536.596 179.368 594.914 179.368C653.231 179.368 642.396 250.138 642.396 250.138L687.446 255.97V183.466C687.446 183.466 685.779 150.974 710.782 150.974C735.785 150.974 738.218 182.655 738.218 182.655V258.424H746.552V326.762H939.492V276.73L953.661 284.228L967.806 281.729V288.484L977.807 276.82V290.15L1001.98 267.633L1019.48 292.627L1028.62 276.865L1035.38 286.03L1051.15 269.367L1063.65 283.53V273.398L1077.82 283.395L1084.58 266.733L1093.74 283.395L1100.5 276.64L1103.83 285.804L1129.67 273.308V354.098H1160.49V303.39H1169.65V240.929L1179.65 225.167L1193.82 248.494H1298.52L1309.35 223.501L1316 253.47V273.465L1332.67 298.459V267.566H1349.33C1349.33 267.566 1357.67 210.103 1416.91 210.103C1476.15 210.103 1487.73 265.066 1487.73 265.066V251.759H1510.25V298.391H1532.78V240.929L1540.28 264.233V190.964L1560.26 111.84L1575.26 193.441V278.396L1591.93 265.9L1606.1 237.596L1625.24 266.733V1090.08H-176.869V251.759Z" fill="#021816"/>
</g>
</g>
<defs>
<clipPath id="clip0_452_58">
<rect width="1440" height="760" fill="white"/>
</clipPath>
<clipPath id="clip1_452_58">
<rect width="1802" height="1089" fill="white" transform="translate(-313.689 -47.6387)"/>
</clipPath>
</defs>
</svg>
