<svg width="33" height="33" viewBox="0 0 33 33" fill="none" xmlns="http://www.w3.org/2000/svg">
<g id="linkedin">
<g clip-path="url(#clip0_339_363)">
<path id="Vector" d="M29.6409 0.701884H2.53761C2.23294 0.697653 1.93043 0.753479 1.64734 0.866174C1.36425 0.978869 1.10613 1.14623 0.887727 1.35869C0.669324 1.57115 0.494912 1.82455 0.374451 2.10442C0.253991 2.3843 0.189842 2.68516 0.185669 2.98983V30.4131C0.189842 30.7178 0.253991 31.0187 0.374451 31.2985C0.494912 31.5784 0.669324 31.8318 0.887727 32.0443C1.10613 32.2567 1.36425 32.4241 1.64734 32.5368C1.93043 32.6495 2.23294 32.7053 2.53761 32.7011H29.6409C29.9456 32.7053 30.2481 32.6495 30.5312 32.5368C30.8143 32.4241 31.0724 32.2567 31.2908 32.0443C31.5092 31.8318 31.6836 31.5784 31.8041 31.2985C31.9246 31.0187 31.9887 30.7178 31.9929 30.4131V2.98983C31.9887 2.68516 31.9246 2.3843 31.8041 2.10442C31.6836 1.82455 31.5092 1.57115 31.2908 1.35869C31.0724 1.14623 30.8143 0.978869 30.5312 0.866174C30.2481 0.753479 29.9456 0.697653 29.6409 0.701884ZM9.83343 27.4852H5.03355V13.0856H9.83343V27.4852ZM7.43349 11.0696C6.77152 11.0696 6.13667 10.8067 5.66859 10.3386C5.20051 9.8705 4.93755 9.23565 4.93755 8.57368C4.93755 7.91172 5.20051 7.27687 5.66859 6.80879C6.13667 6.34071 6.77152 6.07775 7.43349 6.07775C7.78499 6.03788 8.14095 6.07271 8.47806 6.17996C8.81517 6.2872 9.12583 6.46444 9.38969 6.70007C9.65355 6.9357 9.86467 7.2244 10.0092 7.54728C10.1538 7.87016 10.2285 8.21993 10.2285 8.57368C10.2285 8.92744 10.1538 9.27721 10.0092 9.60009C9.86467 9.92296 9.65355 10.2117 9.38969 10.4473C9.12583 10.6829 8.81517 10.8602 8.47806 10.9674C8.14095 11.0747 7.78499 11.1095 7.43349 11.0696ZM27.145 27.4852H22.3451V19.7574C22.3451 17.8214 21.6571 16.5575 19.9132 16.5575C19.3735 16.5614 18.8479 16.7307 18.4074 17.0425C17.9668 17.3544 17.6324 17.7937 17.4492 18.3014C17.324 18.6775 17.2698 19.0735 17.2892 19.4694V27.4692H12.4894C12.4894 27.4692 12.4894 14.3815 12.4894 13.0696H17.2892V15.1015C17.7253 14.3449 18.3595 13.7216 19.1235 13.2987C19.8875 12.8758 20.7525 12.6693 21.6251 12.7016C24.8251 12.7016 27.145 14.7655 27.145 19.1974V27.4852Z" fill="#D131FF"/>
</g>
</g>
<defs>
<clipPath id="clip0_339_363">
<rect x="0.0898438" y="0.701172" width="32" height="32" rx="6" fill="white"/>
</clipPath>
</defs>
</svg>
