<svg width="1440" height="785" viewBox="0 0 1440 785" fill="none" xmlns="http://www.w3.org/2000/svg">
<g clip-path="url(#clip0_452_4)">
<g clip-path="url(#clip1_452_4)" filter="url(#filter0_f_452_4)">
<mask id="path-1-outside-1_452_4" maskUnits="userSpaceOnUse" x="604.61" y="146.916" width="260" height="797" fill="black">
<rect fill="white" x="604.61" y="146.916" width="260" height="797"/>
<path d="M861.889 715.831C859.375 711.754 855.936 707.75 855.936 702.746C856.123 697.616 856.855 692.521 858.118 687.547C859.244 681.956 859.394 676.211 858.562 670.569C857.521 662.425 855.394 654.458 852.239 646.881C848.542 638.577 849.466 626.678 849.429 617.707C849.429 602.879 849.984 587.199 847.359 572.519C846.403 565.849 844.549 559.339 841.85 553.168C842.275 552.932 842.662 552.632 842.996 552.279C843.163 552.033 843.252 551.742 843.252 551.445C843.252 551.147 843.163 550.856 842.996 550.61C844.9 550.802 846.814 550.864 848.727 550.796C848.947 550.79 849.161 550.721 849.343 550.597C849.525 550.472 849.667 550.298 849.753 550.095C849.839 549.891 849.864 549.668 849.826 549.45C849.789 549.233 849.689 549.031 849.54 548.868C845.843 545.421 845.251 540.527 842.885 536.338C842.097 535.01 841.069 533.841 839.853 532.891C837.931 531.223 838.079 527.664 837.191 525.477C835.49 520.992 831.608 517.507 830.055 512.577C830.055 512.577 829.538 510.167 828.835 509.796C831.091 510.983 832.976 512.947 835.195 514.282C835.368 514.379 835.562 514.436 835.76 514.449C835.959 514.461 836.157 514.429 836.342 514.354C836.526 514.279 836.692 514.164 836.826 514.017C836.96 513.87 837.06 513.694 837.117 513.503C838.855 509.166 836.082 505.904 832.496 503.939C831.179 503.178 830.103 502.06 829.39 500.714C830.737 501.508 832.265 501.942 833.827 501.975C834.936 501.975 834.899 500.344 833.827 500.269C824.473 499.788 826.691 485.034 823.696 479.177C821.826 475.117 820.663 470.767 820.258 466.313C820.952 467.273 821.773 468.133 822.698 468.871C823.031 469.168 823.622 468.871 823.363 468.389C818.853 461.42 819.666 455.118 819.666 447.185C819.666 444.034 821.034 437.399 819.296 434.359C817.115 430.652 815.155 434.767 815.969 428.687C816.523 424.276 813.676 421.273 813.676 416.825C813.676 407.483 816.338 398.105 811.125 389.504C807.021 382.684 807.132 373.75 807.095 366.076C807.095 363.111 804.766 355.919 811.458 359.515C812.398 360.151 813.503 360.499 814.638 360.516C815.118 360.516 815.488 360.034 815.525 359.589C815.525 356.401 814.416 358.254 818.113 357.402C818.224 357.372 818.327 357.32 818.417 357.249C818.507 357.179 818.582 357.091 818.637 356.99C818.692 356.89 818.726 356.779 818.738 356.665C818.75 356.551 818.739 356.436 818.705 356.327C816.228 349.765 822.809 355.4 826.099 352.249C826.198 352.115 826.252 351.953 826.252 351.786C826.252 351.619 826.198 351.456 826.099 351.322C824.657 348.32 829.316 349.728 831.091 349.061C831.349 349.061 831.645 348.764 831.682 348.468C831.853 347.466 831.732 346.435 831.331 345.501C830.931 344.567 830.27 343.769 829.427 343.204C832.647 340.852 835.699 338.275 838.559 335.493C838.722 335.207 838.767 334.869 838.684 334.55C838.601 334.231 838.397 333.958 838.116 333.788C835.349 331.539 832.719 329.125 830.24 326.56C830.795 325.855 831.275 325.188 831.83 324.521C835.457 320.515 839.388 316.797 843.587 313.4C846.471 310.505 848.957 307.239 850.982 303.687C851.231 303.646 851.458 303.52 851.626 303.331C851.794 303.143 851.893 302.902 851.906 302.649V302.316L852.091 302.056C852.232 301.87 852.308 301.642 852.308 301.408C852.308 301.173 852.232 300.946 852.091 300.759C852.442 292.777 851.145 284.808 848.282 277.351C845.419 269.894 841.052 263.11 835.453 257.424C832.385 254.384 829.76 250.826 826.987 247.526C824.214 244.227 820.775 242.114 818.187 238.926C816.289 236.379 814.631 233.661 813.233 230.808C811.939 224.172 810.164 218.871 812.9 211.754C813.246 210.748 813.378 209.682 813.289 208.622C813.2 207.563 812.891 206.533 812.382 205.6C812.313 205.355 812.15 205.146 811.928 205.021C811.707 204.896 811.444 204.865 811.199 204.933C809.683 205.452 810.497 204.303 810.275 202.968C810.275 202.412 809.572 202.227 809.092 202.264C807.277 202.371 805.456 202.196 803.694 201.745C803.311 198.202 803.411 194.622 803.99 191.106C804.174 189.994 804.618 189.178 804.729 188.251C806.196 186.23 807.033 183.818 807.132 181.319C807.096 181.216 807.039 181.121 806.963 181.041C806.888 180.961 806.797 180.898 806.696 180.856C806.594 180.814 806.485 180.794 806.376 180.797C806.266 180.8 806.159 180.827 806.06 180.875C805.68 181.156 805.332 181.479 805.025 181.838C804.581 182.357 802.659 185.545 803.805 183.062C804.396 181.801 805.247 180.615 804.766 179.355C804.73 179.255 804.674 179.165 804.601 179.089C804.527 179.013 804.439 178.954 804.341 178.916C804.243 178.877 804.137 178.86 804.032 178.865C803.927 178.871 803.824 178.898 803.731 178.947C802.511 179.614 802.732 179.54 801.808 180.763C801.438 181.356 801.032 181.95 800.699 182.617C800.366 183.284 799.516 178.205 799.553 178.391C799.553 177.835 798.739 177.316 798.333 177.872C797.223 179.206 796.706 183.321 795.745 182.506V180.43C795.757 180.337 795.751 180.243 795.726 180.153C795.702 180.063 795.661 179.978 795.604 179.904C795.548 179.83 795.477 179.768 795.396 179.722C795.316 179.675 795.227 179.645 795.135 179.633C795.042 179.621 794.949 179.627 794.859 179.651C794.769 179.675 794.685 179.717 794.611 179.773C794.537 179.83 794.475 179.901 794.428 179.982C794.382 180.063 794.352 180.152 794.34 180.244C793.285 184.204 792.677 188.27 792.528 192.366C792.387 191.483 792.3 190.591 792.269 189.697C792.713 182.288 792.652 174.856 792.084 167.455C791.862 163.118 797.26 148.624 788.387 148.92C779.513 149.217 779.366 157.483 779.366 164.823C779.366 171.348 780.549 177.798 780.586 184.359C780.586 186.287 780.586 188.066 780.586 190.068C777.776 184.693 773.191 179.577 773.191 173.609C773.191 169.642 773.413 164.23 768.606 162.673C756.221 158.633 760.731 173.164 761.767 180.022C763.131 187.102 763.934 194.279 764.17 201.485C764.17 206.675 766.425 222.245 754.335 217.055C751.155 215.72 749.713 211.828 746.423 210.605C742.467 209.159 728.417 205.044 729.711 212.421C729.384 213.465 729.21 214.552 729.193 215.646C729.415 218.686 734.998 220.243 736.773 222.17C740.83 226.239 745.22 229.96 749.898 233.291C755.111 237.184 759.437 242.411 765.427 245.006C767.209 245.53 769.045 245.853 770.899 245.969C773.073 245.959 775.226 246.398 777.223 247.259C779.221 248.12 781.02 249.385 782.508 250.974C792.468 260.807 799.596 273.153 803.139 286.709C797.63 286.524 792.047 286.524 786.612 286.709C782.915 286.709 783.211 288.081 779.883 288.489C776.556 288.896 778.109 287.525 775.557 288.489C775.409 288.575 775.286 288.699 775.201 288.849C775.117 288.999 775.074 289.169 775.077 289.341C774.892 291.009 761.73 287.525 759.511 288.822C758.527 289.462 757.805 290.436 757.478 291.565C757.608 290.085 757.608 288.597 757.478 287.117C757.422 287.008 757.337 286.917 757.233 286.853C757.128 286.789 757.008 286.756 756.886 286.756C756.764 286.756 756.644 286.789 756.54 286.853C756.435 286.917 756.351 287.008 756.295 287.117C755.296 288.951 754.871 291.043 755.074 293.122C754.376 292.473 753.484 292.071 752.536 291.977C751.588 291.883 750.636 292.103 749.824 292.603C749.566 292.826 749.824 293.16 750.12 293.122C752.264 292.678 754.409 295.606 755.518 297.2C755.532 297.261 755.532 297.324 755.518 297.385C754.987 297.538 754.442 297.637 753.891 297.682C751.525 297.682 749.381 296.681 746.94 297.126C746.178 297.426 745.486 297.881 744.907 298.461C744.328 299.041 743.875 299.735 743.576 300.499C742.303 300.561 741.051 300.85 739.879 301.352C738.474 301.871 736.181 301.537 734.148 302.019C734.324 301.733 734.522 301.46 734.739 301.204C735.849 299.906 736.995 298.683 738.104 297.497C738.728 296.504 739.296 295.477 739.805 294.42C737.239 295.562 734.991 297.319 733.26 299.536L732.817 299.832C731.116 300.833 729.748 302.242 728.121 303.317L727.197 304.021C727.53 303.354 727.825 302.649 728.195 302.019C729.094 300.231 730.12 298.509 731.264 296.867C731.576 296.529 731.787 296.109 731.872 295.657C731.957 295.204 731.913 294.737 731.745 294.309H731.449C731.153 295.235 729.859 296.088 729.341 296.867C728.156 298.474 727.057 300.145 726.051 301.871C725.644 302.538 725.053 303.465 724.535 304.466C724.414 304.303 724.264 304.164 724.091 304.058L717.954 299.98C716.105 298.72 712.704 296.273 712.593 293.864C713.509 291.792 714.251 289.647 714.811 287.451C717.103 278.776 711.114 271.029 707.712 263.763C704.148 255.396 699.881 247.347 694.957 239.705C691.074 234.033 686.527 226.915 679.021 226.174C671.654 225.589 664.265 226.983 657.614 230.215C651.601 232.541 646.441 236.654 642.825 242.003C638.832 249.417 634.062 257.535 634.358 266.135C634.654 274.736 638.055 282.632 639.645 290.935C636.946 291.825 634.802 289.675 634.432 293.753C634.062 297.83 636.17 299.535 639.054 301.537C641.938 303.539 644.784 309.137 648.925 310.1C649.428 310.242 649.954 310.276 650.47 310.2C650.986 310.123 651.481 309.937 651.92 309.656C652.449 309.276 652.807 308.704 652.918 308.062C656.616 311.769 660.646 314.364 663.049 319.627C665.452 324.891 671.849 332.787 664.454 338.57C663.062 339.611 661.591 340.54 660.054 341.351C658.931 341.756 657.881 342.345 656.949 343.093L656.172 343.575C655.973 343.72 655.829 343.929 655.765 344.168L655.285 344.613C653.935 344.299 652.531 344.299 651.181 344.613C651.142 344.636 651.111 344.668 651.089 344.707C651.067 344.746 651.055 344.79 651.055 344.835C651.055 344.88 651.067 344.924 651.089 344.963C651.111 345.002 651.142 345.034 651.181 345.057L653.806 346.429C653.325 347.022 652.845 347.615 652.438 348.171C651.514 349.395 650.552 350.766 649.628 352.175H647.927C646.781 352.175 641.013 354.103 640.865 353.065V353.732C640.843 353.771 640.831 353.816 640.831 353.862C640.831 353.907 640.843 353.952 640.865 353.991C643.442 354.294 646.041 354.356 648.63 354.177V354.473L648.001 355.178C647.15 355.393 646.311 355.652 645.487 355.956C644.082 356.512 642.677 356.957 641.309 357.513C641.211 357.513 641.117 357.552 641.048 357.622C640.978 357.691 640.939 357.785 640.939 357.884C640.939 357.982 640.978 358.076 641.048 358.146C641.117 358.215 641.211 358.254 641.309 358.254C642.39 358.652 643.524 358.889 644.674 358.959C643.786 360.034 642.862 361.072 641.975 362.11C641.087 363.148 638.277 365.817 636.244 368.523C635.772 368.266 635.395 367.863 635.171 367.374C635.152 367.325 635.119 367.284 635.076 367.255C635.033 367.226 634.983 367.21 634.931 367.21C634.879 367.21 634.829 367.226 634.786 367.255C634.743 367.284 634.71 367.325 634.691 367.374C634.606 367.807 634.609 368.253 634.697 368.686C634.786 369.119 634.96 369.529 635.208 369.894L634.691 370.562C632.885 370.376 631.07 370.302 629.256 370.339C628.775 370.339 628.368 371.006 628.886 371.266C630.263 371.982 631.731 372.506 633.249 372.823C632.668 373.753 632.314 374.807 632.214 375.9L631.844 376.345C630.677 377.644 629.443 378.882 628.147 380.052C624.141 384.011 621.147 388.881 619.421 394.249C615.567 404.261 614.295 415.086 615.724 425.722C617.646 440.142 621.639 454.377 622.49 468.908C623.155 480.029 623.118 492.93 613.69 501.011C613.358 501.307 613.69 501.789 614.134 501.604C617.559 499.498 620.276 496.412 621.935 492.744C621.558 495.658 621.496 498.603 621.75 501.53C620.795 504.149 620.041 506.839 619.495 509.574C617.949 512.164 615.988 514.481 613.69 516.432C613.394 516.691 613.69 517.136 614.134 516.988C616.021 516.005 617.645 514.581 618.867 512.836C618.201 516.321 617.646 519.694 616.796 522.66C613.653 533.558 613.358 545.754 611.287 556.912C608.912 568.555 608.302 580.489 609.475 592.314C610.363 599.432 612.914 606.327 613.727 613.444C614.573 622.941 613.912 632.513 611.768 641.803C609.549 651.849 605.445 662.006 606.924 672.608C608.403 683.21 616.574 695.183 626.409 699.261C630.106 700.781 637.686 697.333 637.686 693.07C637.686 690.809 633.249 686.768 631.659 685.656C628.738 683.803 627.962 684.581 631.918 684.544C633.237 684.371 634.501 683.902 635.615 683.173C635.773 683.082 635.897 682.943 635.971 682.776C636.044 682.61 636.062 682.424 636.022 682.246C635.8 680.874 635.504 680.355 633.914 679.911C632.332 679.518 630.853 678.788 629.577 677.771C628.301 676.754 627.258 675.474 626.52 674.016C623.229 664.823 628.368 669.716 630.217 668.159C633.101 665.972 634.284 676.871 637.981 678.947C637.71 679.117 637.426 679.266 637.131 679.392C637.033 679.392 636.939 679.431 636.87 679.5C636.8 679.57 636.761 679.664 636.761 679.762C636.761 679.861 636.8 679.955 636.87 680.024C636.939 680.094 637.033 680.133 637.131 680.133C648.888 680.578 637.945 649.217 637.131 643.878C636.318 638.54 633.988 635.241 634.21 630.051C634.618 624.567 635.865 619.178 637.907 614.074C641.087 604.992 644.23 595.873 647.779 586.828C649.665 582.009 651.477 577.19 653.51 572.334C655.544 567.477 655.359 561.212 656.986 555.615C659.653 547.788 661.548 539.717 662.642 531.519C663.739 520.931 664.097 510.278 663.715 499.639C663.715 499.269 663.715 498.898 663.715 498.564C665.452 499.009 668.336 499.38 667.412 497.081C667.379 497.01 667.327 496.95 667.262 496.908C667.196 496.866 667.12 496.843 667.042 496.843C666.964 496.843 666.888 496.866 666.822 496.908C666.757 496.95 666.705 497.01 666.672 497.081C666.34 497.675 664.787 497.267 663.53 497.081C663.53 495.784 663.53 494.561 663.53 493.374C664.441 493.921 665.466 494.251 666.524 494.338C668.067 496.88 668.838 499.817 668.743 502.79C668.743 504.236 667.079 507.609 667.966 509.129C671.257 514.764 671.664 520.584 675.99 525.922C676.155 526.091 676.371 526.202 676.605 526.235C676.839 526.269 677.078 526.224 677.284 526.107C678.836 525.218 680.131 520.806 679.983 522.993C679.724 526.293 678.208 527.219 676.544 529.962C674.88 532.706 673.734 537.747 677.801 538.748C680.057 539.304 681.499 553.91 681.499 557.024C681.794 562.176 684.789 565.327 680.389 569.442C679.623 569.971 679.039 570.727 678.721 571.604C678.403 572.481 678.366 573.436 678.615 574.335C678.666 574.531 678.769 574.71 678.912 574.853C679.055 574.996 679.233 575.099 679.428 575.151C681.666 575.491 683.931 575.627 686.194 575.559C685.577 577.711 685.108 579.903 684.789 582.12C683.648 591.305 683.117 600.556 683.199 609.811C683.199 620.932 681.499 631.164 682.534 642.173C683.125 648.438 684.604 658.262 682.534 664.23C681.661 666.315 681.148 668.534 681.018 670.791C681.018 671.792 682.312 672.719 683.236 672.052L684.974 670.717C684.974 672.904 684.974 675.129 684.974 677.39C684.974 680.392 682.127 682.357 683.199 685.286C683.256 685.469 683.357 685.635 683.492 685.771C683.627 685.906 683.793 686.007 683.976 686.064C685.566 686.324 683.606 699.743 683.606 701.634C683.566 709.743 682.218 717.792 679.613 725.47C677.838 731.252 675.509 736.591 673.217 742.262C670.886 749.345 668.095 756.268 664.861 762.984C663.209 767.411 662.322 772.086 662.236 776.811C661.459 783.632 663.567 788.822 663.973 795.346C664.824 809.47 670.185 823.149 667.301 837.532C667.081 837.494 666.856 837.494 666.635 837.532C665.226 837.403 663.808 837.659 662.531 838.273C662.194 838.274 661.866 838.377 661.588 838.569C661.311 838.761 661.098 839.033 660.979 839.349C660.863 839.874 660.863 840.417 660.979 840.942L660.276 840.349C659.402 839.526 658.373 838.885 657.25 838.465C656.126 838.045 654.93 837.854 653.732 837.903C653.51 837.903 653.436 838.273 653.732 838.311C656.653 838.904 658.058 841.017 660.017 842.981C660.451 843.429 660.847 843.913 661.2 844.427C658.251 843.93 655.239 843.93 652.29 844.427C649.666 844.462 647.121 845.327 645.016 846.898C642.912 848.469 641.356 850.666 640.57 853.176C643.158 846.651 650.515 844.946 657.318 845.762C655.958 846.622 654.715 847.656 653.621 848.838C650.293 852.545 645.376 856.66 644.895 861.813C644.906 861.986 644.96 862.153 645.052 862.3C645.144 862.447 645.271 862.568 645.422 862.653C645.573 862.737 645.742 862.783 645.915 862.785C646.088 862.787 646.258 862.746 646.411 862.665C650.481 859.956 654.983 857.962 659.722 856.771C657.762 860.033 658.834 865.631 655.1 867.336C651.366 869.042 654.139 881.645 655.322 884.389C657.762 890.06 656.061 898.846 656.061 904.888C655.352 909.149 654.2 913.324 652.623 917.344C651.144 923.275 651.772 935.063 658.427 938.103C666.276 941.178 674.785 942.161 683.125 940.957C691.555 939.808 703.054 942.514 703.423 931.727C703.28 923.389 702.264 915.089 700.392 906.964C698.247 895.658 702.832 884.722 703.312 873.268C703.872 872.857 704.497 872.543 705.161 872.341C708.156 871.303 713.036 872.341 714.072 875.492C714.072 875.788 714.515 875.788 714.589 875.492C714.731 874.97 714.731 874.42 714.589 873.898C714.606 873.863 714.614 873.825 714.614 873.786C714.614 873.748 714.606 873.71 714.589 873.675C715.324 870.179 714.702 866.534 712.851 863.481C712.054 862.415 711.163 861.423 710.189 860.515C710.707 859.959 710.189 860.515 711.89 859.477C714.848 857.735 709.339 852.731 708.193 851.582C706.549 849.751 704.531 848.298 702.277 847.319C705.577 847.029 708.901 847.369 712.075 848.319C712.075 848.319 712.371 848.319 712.297 848.134C711.077 844.724 705.161 844.612 701.39 845.02C702.123 843.969 702.979 843.011 703.941 842.166C708.392 838.523 713.184 835.32 718.249 832.602C719.174 832.046 718.249 830.6 717.436 831.193C714.823 832.296 712.268 833.533 709.783 834.9C707.453 836.642 709.487 834.9 710.189 833.899C711.336 832.194 712.371 830.378 713.443 828.598C714.959 826.226 723.5 815.661 721.466 812.213L721.984 811.843C722.243 811.657 722.243 811.175 721.984 811.138C720.579 810.916 719.765 811.731 718.286 811.509C716.57 811.577 714.896 812.06 713.406 812.918C713.702 810.323 713.406 807.357 713.887 805.207C715.144 798.015 720.542 792.344 723.906 786.19C725.496 783.262 727.012 781.408 726.236 778.183C725.792 775.284 725.792 772.334 726.236 769.434C726.236 767.247 729.23 769.435 730.303 769.731C730.595 769.814 730.907 769.797 731.188 769.683C731.47 769.569 731.706 769.364 731.858 769.1C732.011 768.837 732.071 768.53 732.031 768.228C731.99 767.926 731.85 767.646 731.634 767.433C722.797 758.536 731.19 747.378 733.741 738.407C734.925 733.997 735.888 729.531 736.625 725.025C737.475 720.094 739.657 715.609 740.655 710.679C742.282 702.412 746.534 694.516 747.569 686.138C747.828 684.136 749.048 679.392 747.569 677.501C748.319 678.409 749.345 679.047 750.49 679.317C751.266 679.651 752.154 678.687 751.895 677.909C751.081 675.499 749.344 662.821 753.3 663.081C754.261 663.081 756.553 663.081 756.997 661.709C757.555 658.424 758.985 655.351 761.138 652.812C760.63 657.591 761.369 662.419 763.282 666.825C764.489 669.517 765.502 672.292 766.314 675.128C767.202 679.91 762.617 688.511 761.027 692.959C760.987 693.102 760.981 693.253 761.008 693.399C761.036 693.545 761.097 693.682 761.187 693.801C761.276 693.919 761.392 694.015 761.524 694.081C761.657 694.148 761.803 694.182 761.951 694.182C763.837 694.182 763.615 694.182 765.168 692.811C765.834 692.292 765.981 702.301 765.981 703.19C765.981 711.16 770.159 719.464 769.383 727.064C769.381 727.259 769.44 727.451 769.553 727.611C769.666 727.771 769.826 727.89 770.011 727.953C774.966 728.732 772.082 719.983 774.152 726.47C775.645 731.428 776.246 736.612 775.927 741.78C775.927 747.304 772.747 751.641 772.23 756.979C772.23 757.98 773.672 758.351 774.116 757.498C775.52 754.495 777.036 752.049 778.367 748.935C779.698 745.821 779.772 742.114 780.919 738.741C780.919 738.963 780.919 739.222 780.919 739.556C781.561 741.685 782.534 743.699 783.802 745.524C783.874 745.647 783.977 745.75 784.1 745.82C784.223 745.891 784.363 745.929 784.505 745.929C784.647 745.929 784.787 745.891 784.91 745.82C785.033 745.75 785.136 745.647 785.207 745.524C787.078 741.211 787.791 736.483 787.278 731.808L788.054 733.291C788.166 733.466 788.33 733.6 788.523 733.673C788.716 733.747 788.928 733.756 789.126 733.699C789.629 733.577 790.087 733.319 790.453 732.953C790.818 732.587 791.075 732.127 791.197 731.623C792.454 728.509 790.568 729.362 793.304 731.215C793.47 731.339 793.671 731.405 793.878 731.405C794.084 731.405 794.285 731.339 794.451 731.215C794.332 732.126 794.332 733.048 794.451 733.959C793.748 738.815 790.495 742.892 788.461 747.267C784.568 756.396 781.162 765.726 778.256 775.217C775.853 782.149 778.072 789.304 779.551 796.088C780.653 802.263 781.074 808.541 780.808 814.808C780.808 817.737 779.329 820.813 779.07 823.742L778.885 823.52C777.846 821.908 776.603 820.437 775.188 819.145C774.574 818.637 773.905 818.201 773.191 817.848C773.191 817.848 771.047 817.069 771.527 816.662C772.008 816.254 771.527 815.994 771.121 816.18C770.714 816.365 770.603 816.476 770.492 817.218C770.444 817.282 770.418 817.36 770.418 817.44C770.418 817.52 770.444 817.598 770.492 817.663C772.833 818.917 774.75 820.839 776.001 823.186C776.556 824.113 777.184 825.002 777.739 825.929C778.016 826.46 778.192 827.038 778.256 827.634C773.08 825.41 764.318 826.708 760.546 827.634C760.288 827.634 760.288 828.079 760.546 828.153C764.244 828.932 767.941 828.561 771.638 829.488C773.214 829.847 774.77 830.292 776.297 830.822C776.777 830.992 777.236 831.216 777.665 831.49C776.481 832.05 775.242 832.485 773.968 832.787C771.487 832.656 769.001 832.855 766.573 833.38C764.022 834.455 762.21 836.012 762.358 838.867C762.358 838.867 762.358 839.052 762.543 838.867C763.319 835.716 766.24 835.16 768.939 835.16C767.79 836.984 767.235 839.121 767.349 841.276C767.349 845.465 771.047 848.357 769.568 853.027C769.235 854.028 768.643 855.733 769.568 856.734C774.115 860.923 769.901 872.081 769.901 877.642C769.901 882.424 777.813 885.575 781.399 886.872C798.259 893.1 810.46 907.669 829.094 908.447C835.49 908.706 843.883 908.706 848.912 903.628C849.531 903.026 850.024 902.306 850.361 901.51C850.697 900.714 850.871 899.859 850.871 898.994C851.056 899.001 851.24 898.968 851.411 898.896C851.581 898.824 851.734 898.715 851.857 898.577C851.981 898.438 852.073 898.275 852.126 898.097C852.179 897.919 852.193 897.732 852.165 897.548C850.571 888.38 845.995 879.999 839.151 873.712C836.302 870.695 833.211 867.917 829.908 865.409C824.62 861.516 826.21 855.882 826.395 849.913C825.866 847.82 824.882 845.87 823.511 844.205C820.738 841.536 819.592 841.091 819.481 837.161C819.37 833.232 817.448 833.269 816.523 830.155C816.42 829.826 816.333 829.492 816.265 829.154H817.891C821.907 829.177 825.884 828.369 829.575 826.782C828.071 826.884 826.561 826.746 825.101 826.374C823.437 826.152 821.626 826.374 819.925 826.374C818.842 826.3 817.754 826.3 816.671 826.374C816.967 825.262 817.226 824.15 817.485 823.001C818.947 822.285 820.524 821.833 822.143 821.666C824.325 821.666 826.136 822.778 828.281 822.63C828.355 822.606 828.419 822.558 828.465 822.495C828.51 822.432 828.535 822.356 828.535 822.278C828.535 822.2 828.51 822.124 828.465 822.06C828.419 821.997 828.355 821.95 828.281 821.926C826.022 820.365 823.397 819.419 820.664 819.182C819.791 819.137 818.916 819.237 818.076 819.479C818.668 816.847 819.296 814.178 820.073 811.583C821.737 806.245 825.027 801.611 826.913 796.421C829.205 790.12 833.901 784.707 836.932 778.702C839.447 773.772 841.517 768.397 843.551 763.244C847.037 753.805 847.258 743.465 844.179 733.884C844.434 734.115 844.706 734.325 844.992 734.515C845.293 734.679 845.646 734.72 845.976 734.63C846.307 734.54 846.59 734.326 846.767 734.033C847.066 733.65 847.274 733.204 847.376 732.729C847.479 732.254 847.473 731.762 847.359 731.29C847.254 730.044 847.366 728.789 847.691 727.583C848.875 730.734 850.28 733.81 851.389 737.184C851.722 738.185 853.274 737.777 852.942 736.776C851.943 733.551 850.834 730.548 849.836 727.545C849.836 726.137 849.836 724.765 849.836 723.319C849.845 722.447 849.944 721.577 850.132 720.725C850.317 719.983 850.501 719.205 850.649 718.426L851.315 716.054L851.648 715.201C852.213 716.631 853.208 717.848 854.494 718.686C854.588 718.749 854.695 718.788 854.806 718.801C854.918 718.814 855.031 718.8 855.136 718.76C855.241 718.72 855.335 718.655 855.41 718.572C855.485 718.488 855.539 718.387 855.567 718.278C856.01 716.462 856.454 714.793 856.75 713.088C857.802 714.646 859.044 716.065 860.447 717.314C861.297 717.388 862.37 716.61 861.889 715.831Z"/>
</mask>
<path d="M861.889 715.831C859.375 711.754 855.936 707.75 855.936 702.746C856.123 697.616 856.855 692.521 858.118 687.547C859.244 681.956 859.394 676.211 858.562 670.569C857.521 662.425 855.394 654.458 852.239 646.881C848.542 638.577 849.466 626.678 849.429 617.707C849.429 602.879 849.984 587.199 847.359 572.519C846.403 565.849 844.549 559.339 841.85 553.168C842.275 552.932 842.662 552.632 842.996 552.279C843.163 552.033 843.252 551.742 843.252 551.445C843.252 551.147 843.163 550.856 842.996 550.61C844.9 550.802 846.814 550.864 848.727 550.796C848.947 550.79 849.161 550.721 849.343 550.597C849.525 550.472 849.667 550.298 849.753 550.095C849.839 549.891 849.864 549.668 849.826 549.45C849.789 549.233 849.689 549.031 849.54 548.868C845.843 545.421 845.251 540.527 842.885 536.338C842.097 535.01 841.069 533.841 839.853 532.891C837.931 531.223 838.079 527.664 837.191 525.477C835.49 520.992 831.608 517.507 830.055 512.577C830.055 512.577 829.538 510.167 828.835 509.796C831.091 510.983 832.976 512.947 835.195 514.282C835.368 514.379 835.562 514.436 835.76 514.449C835.959 514.461 836.157 514.429 836.342 514.354C836.526 514.279 836.692 514.164 836.826 514.017C836.96 513.87 837.06 513.694 837.117 513.503C838.855 509.166 836.082 505.904 832.496 503.939C831.179 503.178 830.103 502.06 829.39 500.714C830.737 501.508 832.265 501.942 833.827 501.975C834.936 501.975 834.899 500.344 833.827 500.269C824.473 499.788 826.691 485.034 823.696 479.177C821.826 475.117 820.663 470.767 820.258 466.313C820.952 467.273 821.773 468.133 822.698 468.871C823.031 469.168 823.622 468.871 823.363 468.389C818.853 461.42 819.666 455.118 819.666 447.185C819.666 444.034 821.034 437.399 819.296 434.359C817.115 430.652 815.155 434.767 815.969 428.687C816.523 424.276 813.676 421.273 813.676 416.825C813.676 407.483 816.338 398.105 811.125 389.504C807.021 382.684 807.132 373.75 807.095 366.076C807.095 363.111 804.766 355.919 811.458 359.515C812.398 360.151 813.503 360.499 814.638 360.516C815.118 360.516 815.488 360.034 815.525 359.589C815.525 356.401 814.416 358.254 818.113 357.402C818.224 357.372 818.327 357.32 818.417 357.249C818.507 357.179 818.582 357.091 818.637 356.99C818.692 356.89 818.726 356.779 818.738 356.665C818.75 356.551 818.739 356.436 818.705 356.327C816.228 349.765 822.809 355.4 826.099 352.249C826.198 352.115 826.252 351.953 826.252 351.786C826.252 351.619 826.198 351.456 826.099 351.322C824.657 348.32 829.316 349.728 831.091 349.061C831.349 349.061 831.645 348.764 831.682 348.468C831.853 347.466 831.732 346.435 831.331 345.501C830.931 344.567 830.27 343.769 829.427 343.204C832.647 340.852 835.699 338.275 838.559 335.493C838.722 335.207 838.767 334.869 838.684 334.55C838.601 334.231 838.397 333.958 838.116 333.788C835.349 331.539 832.719 329.125 830.24 326.56C830.795 325.855 831.275 325.188 831.83 324.521C835.457 320.515 839.388 316.797 843.587 313.4C846.471 310.505 848.957 307.239 850.982 303.687C851.231 303.646 851.458 303.52 851.626 303.331C851.794 303.143 851.893 302.902 851.906 302.649V302.316L852.091 302.056C852.232 301.87 852.308 301.642 852.308 301.408C852.308 301.173 852.232 300.946 852.091 300.759C852.442 292.777 851.145 284.808 848.282 277.351C845.419 269.894 841.052 263.11 835.453 257.424C832.385 254.384 829.76 250.826 826.987 247.526C824.214 244.227 820.775 242.114 818.187 238.926C816.289 236.379 814.631 233.661 813.233 230.808C811.939 224.172 810.164 218.871 812.9 211.754C813.246 210.748 813.378 209.682 813.289 208.622C813.2 207.563 812.891 206.533 812.382 205.6C812.313 205.355 812.15 205.146 811.928 205.021C811.707 204.896 811.444 204.865 811.199 204.933C809.683 205.452 810.497 204.303 810.275 202.968C810.275 202.412 809.572 202.227 809.092 202.264C807.277 202.371 805.456 202.196 803.694 201.745C803.311 198.202 803.411 194.622 803.99 191.106C804.174 189.994 804.618 189.178 804.729 188.251C806.196 186.23 807.033 183.818 807.132 181.319C807.096 181.216 807.039 181.121 806.963 181.041C806.888 180.961 806.797 180.898 806.696 180.856C806.594 180.814 806.485 180.794 806.376 180.797C806.266 180.8 806.159 180.827 806.06 180.875C805.68 181.156 805.332 181.479 805.025 181.838C804.581 182.357 802.659 185.545 803.805 183.062C804.396 181.801 805.247 180.615 804.766 179.355C804.73 179.255 804.674 179.165 804.601 179.089C804.527 179.013 804.439 178.954 804.341 178.916C804.243 178.877 804.137 178.86 804.032 178.865C803.927 178.871 803.824 178.898 803.731 178.947C802.511 179.614 802.732 179.54 801.808 180.763C801.438 181.356 801.032 181.95 800.699 182.617C800.366 183.284 799.516 178.205 799.553 178.391C799.553 177.835 798.739 177.316 798.333 177.872C797.223 179.206 796.706 183.321 795.745 182.506V180.43C795.757 180.337 795.751 180.243 795.726 180.153C795.702 180.063 795.661 179.978 795.604 179.904C795.548 179.83 795.477 179.768 795.396 179.722C795.316 179.675 795.227 179.645 795.135 179.633C795.042 179.621 794.949 179.627 794.859 179.651C794.769 179.675 794.685 179.717 794.611 179.773C794.537 179.83 794.475 179.901 794.428 179.982C794.382 180.063 794.352 180.152 794.34 180.244C793.285 184.204 792.677 188.27 792.528 192.366C792.387 191.483 792.3 190.591 792.269 189.697C792.713 182.288 792.652 174.856 792.084 167.455C791.862 163.118 797.26 148.624 788.387 148.92C779.513 149.217 779.366 157.483 779.366 164.823C779.366 171.348 780.549 177.798 780.586 184.359C780.586 186.287 780.586 188.066 780.586 190.068C777.776 184.693 773.191 179.577 773.191 173.609C773.191 169.642 773.413 164.23 768.606 162.673C756.221 158.633 760.731 173.164 761.767 180.022C763.131 187.102 763.934 194.279 764.17 201.485C764.17 206.675 766.425 222.245 754.335 217.055C751.155 215.72 749.713 211.828 746.423 210.605C742.467 209.159 728.417 205.044 729.711 212.421C729.384 213.465 729.21 214.552 729.193 215.646C729.415 218.686 734.998 220.243 736.773 222.17C740.83 226.239 745.22 229.96 749.898 233.291C755.111 237.184 759.437 242.411 765.427 245.006C767.209 245.53 769.045 245.853 770.899 245.969C773.073 245.959 775.226 246.398 777.223 247.259C779.221 248.12 781.02 249.385 782.508 250.974C792.468 260.807 799.596 273.153 803.139 286.709C797.63 286.524 792.047 286.524 786.612 286.709C782.915 286.709 783.211 288.081 779.883 288.489C776.556 288.896 778.109 287.525 775.557 288.489C775.409 288.575 775.286 288.699 775.201 288.849C775.117 288.999 775.074 289.169 775.077 289.341C774.892 291.009 761.73 287.525 759.511 288.822C758.527 289.462 757.805 290.436 757.478 291.565C757.608 290.085 757.608 288.597 757.478 287.117C757.422 287.008 757.337 286.917 757.233 286.853C757.128 286.789 757.008 286.756 756.886 286.756C756.764 286.756 756.644 286.789 756.54 286.853C756.435 286.917 756.351 287.008 756.295 287.117C755.296 288.951 754.871 291.043 755.074 293.122C754.376 292.473 753.484 292.071 752.536 291.977C751.588 291.883 750.636 292.103 749.824 292.603C749.566 292.826 749.824 293.16 750.12 293.122C752.264 292.678 754.409 295.606 755.518 297.2C755.532 297.261 755.532 297.324 755.518 297.385C754.987 297.538 754.442 297.637 753.891 297.682C751.525 297.682 749.381 296.681 746.94 297.126C746.178 297.426 745.486 297.881 744.907 298.461C744.328 299.041 743.875 299.735 743.576 300.499C742.303 300.561 741.051 300.85 739.879 301.352C738.474 301.871 736.181 301.537 734.148 302.019C734.324 301.733 734.522 301.46 734.739 301.204C735.849 299.906 736.995 298.683 738.104 297.497C738.728 296.504 739.296 295.477 739.805 294.42C737.239 295.562 734.991 297.319 733.26 299.536L732.817 299.832C731.116 300.833 729.748 302.242 728.121 303.317L727.197 304.021C727.53 303.354 727.825 302.649 728.195 302.019C729.094 300.231 730.12 298.509 731.264 296.867C731.576 296.529 731.787 296.109 731.872 295.657C731.957 295.204 731.913 294.737 731.745 294.309H731.449C731.153 295.235 729.859 296.088 729.341 296.867C728.156 298.474 727.057 300.145 726.051 301.871C725.644 302.538 725.053 303.465 724.535 304.466C724.414 304.303 724.264 304.164 724.091 304.058L717.954 299.98C716.105 298.72 712.704 296.273 712.593 293.864C713.509 291.792 714.251 289.647 714.811 287.451C717.103 278.776 711.114 271.029 707.712 263.763C704.148 255.396 699.881 247.347 694.957 239.705C691.074 234.033 686.527 226.915 679.021 226.174C671.654 225.589 664.265 226.983 657.614 230.215C651.601 232.541 646.441 236.654 642.825 242.003C638.832 249.417 634.062 257.535 634.358 266.135C634.654 274.736 638.055 282.632 639.645 290.935C636.946 291.825 634.802 289.675 634.432 293.753C634.062 297.83 636.17 299.535 639.054 301.537C641.938 303.539 644.784 309.137 648.925 310.1C649.428 310.242 649.954 310.276 650.47 310.2C650.986 310.123 651.481 309.937 651.92 309.656C652.449 309.276 652.807 308.704 652.918 308.062C656.616 311.769 660.646 314.364 663.049 319.627C665.452 324.891 671.849 332.787 664.454 338.57C663.062 339.611 661.591 340.54 660.054 341.351C658.931 341.756 657.881 342.345 656.949 343.093L656.172 343.575C655.973 343.72 655.829 343.929 655.765 344.168L655.285 344.613C653.935 344.299 652.531 344.299 651.181 344.613C651.142 344.636 651.111 344.668 651.089 344.707C651.067 344.746 651.055 344.79 651.055 344.835C651.055 344.88 651.067 344.924 651.089 344.963C651.111 345.002 651.142 345.034 651.181 345.057L653.806 346.429C653.325 347.022 652.845 347.615 652.438 348.171C651.514 349.395 650.552 350.766 649.628 352.175H647.927C646.781 352.175 641.013 354.103 640.865 353.065V353.732C640.843 353.771 640.831 353.816 640.831 353.862C640.831 353.907 640.843 353.952 640.865 353.991C643.442 354.294 646.041 354.356 648.63 354.177V354.473L648.001 355.178C647.15 355.393 646.311 355.652 645.487 355.956C644.082 356.512 642.677 356.957 641.309 357.513C641.211 357.513 641.117 357.552 641.048 357.622C640.978 357.691 640.939 357.785 640.939 357.884C640.939 357.982 640.978 358.076 641.048 358.146C641.117 358.215 641.211 358.254 641.309 358.254C642.39 358.652 643.524 358.889 644.674 358.959C643.786 360.034 642.862 361.072 641.975 362.11C641.087 363.148 638.277 365.817 636.244 368.523C635.772 368.266 635.395 367.863 635.171 367.374C635.152 367.325 635.119 367.284 635.076 367.255C635.033 367.226 634.983 367.21 634.931 367.21C634.879 367.21 634.829 367.226 634.786 367.255C634.743 367.284 634.71 367.325 634.691 367.374C634.606 367.807 634.609 368.253 634.697 368.686C634.786 369.119 634.96 369.529 635.208 369.894L634.691 370.562C632.885 370.376 631.07 370.302 629.256 370.339C628.775 370.339 628.368 371.006 628.886 371.266C630.263 371.982 631.731 372.506 633.249 372.823C632.668 373.753 632.314 374.807 632.214 375.9L631.844 376.345C630.677 377.644 629.443 378.882 628.147 380.052C624.141 384.011 621.147 388.881 619.421 394.249C615.567 404.261 614.295 415.086 615.724 425.722C617.646 440.142 621.639 454.377 622.49 468.908C623.155 480.029 623.118 492.93 613.69 501.011C613.358 501.307 613.69 501.789 614.134 501.604C617.559 499.498 620.276 496.412 621.935 492.744C621.558 495.658 621.496 498.603 621.75 501.53C620.795 504.149 620.041 506.839 619.495 509.574C617.949 512.164 615.988 514.481 613.69 516.432C613.394 516.691 613.69 517.136 614.134 516.988C616.021 516.005 617.645 514.581 618.867 512.836C618.201 516.321 617.646 519.694 616.796 522.66C613.653 533.558 613.358 545.754 611.287 556.912C608.912 568.555 608.302 580.489 609.475 592.314C610.363 599.432 612.914 606.327 613.727 613.444C614.573 622.941 613.912 632.513 611.768 641.803C609.549 651.849 605.445 662.006 606.924 672.608C608.403 683.21 616.574 695.183 626.409 699.261C630.106 700.781 637.686 697.333 637.686 693.07C637.686 690.809 633.249 686.768 631.659 685.656C628.738 683.803 627.962 684.581 631.918 684.544C633.237 684.371 634.501 683.902 635.615 683.173C635.773 683.082 635.897 682.943 635.971 682.776C636.044 682.61 636.062 682.424 636.022 682.246C635.8 680.874 635.504 680.355 633.914 679.911C632.332 679.518 630.853 678.788 629.577 677.771C628.301 676.754 627.258 675.474 626.52 674.016C623.229 664.823 628.368 669.716 630.217 668.159C633.101 665.972 634.284 676.871 637.981 678.947C637.71 679.117 637.426 679.266 637.131 679.392C637.033 679.392 636.939 679.431 636.87 679.5C636.8 679.57 636.761 679.664 636.761 679.762C636.761 679.861 636.8 679.955 636.87 680.024C636.939 680.094 637.033 680.133 637.131 680.133C648.888 680.578 637.945 649.217 637.131 643.878C636.318 638.54 633.988 635.241 634.21 630.051C634.618 624.567 635.865 619.178 637.907 614.074C641.087 604.992 644.23 595.873 647.779 586.828C649.665 582.009 651.477 577.19 653.51 572.334C655.544 567.477 655.359 561.212 656.986 555.615C659.653 547.788 661.548 539.717 662.642 531.519C663.739 520.931 664.097 510.278 663.715 499.639C663.715 499.269 663.715 498.898 663.715 498.564C665.452 499.009 668.336 499.38 667.412 497.081C667.379 497.01 667.327 496.95 667.262 496.908C667.196 496.866 667.12 496.843 667.042 496.843C666.964 496.843 666.888 496.866 666.822 496.908C666.757 496.95 666.705 497.01 666.672 497.081C666.34 497.675 664.787 497.267 663.53 497.081C663.53 495.784 663.53 494.561 663.53 493.374C664.441 493.921 665.466 494.251 666.524 494.338C668.067 496.88 668.838 499.817 668.743 502.79C668.743 504.236 667.079 507.609 667.966 509.129C671.257 514.764 671.664 520.584 675.99 525.922C676.155 526.091 676.371 526.202 676.605 526.235C676.839 526.269 677.078 526.224 677.284 526.107C678.836 525.218 680.131 520.806 679.983 522.993C679.724 526.293 678.208 527.219 676.544 529.962C674.88 532.706 673.734 537.747 677.801 538.748C680.057 539.304 681.499 553.91 681.499 557.024C681.794 562.176 684.789 565.327 680.389 569.442C679.623 569.971 679.039 570.727 678.721 571.604C678.403 572.481 678.366 573.436 678.615 574.335C678.666 574.531 678.769 574.71 678.912 574.853C679.055 574.996 679.233 575.099 679.428 575.151C681.666 575.491 683.931 575.627 686.194 575.559C685.577 577.711 685.108 579.903 684.789 582.12C683.648 591.305 683.117 600.556 683.199 609.811C683.199 620.932 681.499 631.164 682.534 642.173C683.125 648.438 684.604 658.262 682.534 664.23C681.661 666.315 681.148 668.534 681.018 670.791C681.018 671.792 682.312 672.719 683.236 672.052L684.974 670.717C684.974 672.904 684.974 675.129 684.974 677.39C684.974 680.392 682.127 682.357 683.199 685.286C683.256 685.469 683.357 685.635 683.492 685.771C683.627 685.906 683.793 686.007 683.976 686.064C685.566 686.324 683.606 699.743 683.606 701.634C683.566 709.743 682.218 717.792 679.613 725.47C677.838 731.252 675.509 736.591 673.217 742.262C670.886 749.345 668.095 756.268 664.861 762.984C663.209 767.411 662.322 772.086 662.236 776.811C661.459 783.632 663.567 788.822 663.973 795.346C664.824 809.47 670.185 823.149 667.301 837.532C667.081 837.494 666.856 837.494 666.635 837.532C665.226 837.403 663.808 837.659 662.531 838.273C662.194 838.274 661.866 838.377 661.588 838.569C661.311 838.761 661.098 839.033 660.979 839.349C660.863 839.874 660.863 840.417 660.979 840.942L660.276 840.349C659.402 839.526 658.373 838.885 657.25 838.465C656.126 838.045 654.93 837.854 653.732 837.903C653.51 837.903 653.436 838.273 653.732 838.311C656.653 838.904 658.058 841.017 660.017 842.981C660.451 843.429 660.847 843.913 661.2 844.427C658.251 843.93 655.239 843.93 652.29 844.427C649.666 844.462 647.121 845.327 645.016 846.898C642.912 848.469 641.356 850.666 640.57 853.176C643.158 846.651 650.515 844.946 657.318 845.762C655.958 846.622 654.715 847.656 653.621 848.838C650.293 852.545 645.376 856.66 644.895 861.813C644.906 861.986 644.96 862.153 645.052 862.3C645.144 862.447 645.271 862.568 645.422 862.653C645.573 862.737 645.742 862.783 645.915 862.785C646.088 862.787 646.258 862.746 646.411 862.665C650.481 859.956 654.983 857.962 659.722 856.771C657.762 860.033 658.834 865.631 655.1 867.336C651.366 869.042 654.139 881.645 655.322 884.389C657.762 890.06 656.061 898.846 656.061 904.888C655.352 909.149 654.2 913.324 652.623 917.344C651.144 923.275 651.772 935.063 658.427 938.103C666.276 941.178 674.785 942.161 683.125 940.957C691.555 939.808 703.054 942.514 703.423 931.727C703.28 923.389 702.264 915.089 700.392 906.964C698.247 895.658 702.832 884.722 703.312 873.268C703.872 872.857 704.497 872.543 705.161 872.341C708.156 871.303 713.036 872.341 714.072 875.492C714.072 875.788 714.515 875.788 714.589 875.492C714.731 874.97 714.731 874.42 714.589 873.898C714.606 873.863 714.614 873.825 714.614 873.786C714.614 873.748 714.606 873.71 714.589 873.675C715.324 870.179 714.702 866.534 712.851 863.481C712.054 862.415 711.163 861.423 710.189 860.515C710.707 859.959 710.189 860.515 711.89 859.477C714.848 857.735 709.339 852.731 708.193 851.582C706.549 849.751 704.531 848.298 702.277 847.319C705.577 847.029 708.901 847.369 712.075 848.319C712.075 848.319 712.371 848.319 712.297 848.134C711.077 844.724 705.161 844.612 701.39 845.02C702.123 843.969 702.979 843.011 703.941 842.166C708.392 838.523 713.184 835.32 718.249 832.602C719.174 832.046 718.249 830.6 717.436 831.193C714.823 832.296 712.268 833.533 709.783 834.9C707.453 836.642 709.487 834.9 710.189 833.899C711.336 832.194 712.371 830.378 713.443 828.598C714.959 826.226 723.5 815.661 721.466 812.213L721.984 811.843C722.243 811.657 722.243 811.175 721.984 811.138C720.579 810.916 719.765 811.731 718.286 811.509C716.57 811.577 714.896 812.06 713.406 812.918C713.702 810.323 713.406 807.357 713.887 805.207C715.144 798.015 720.542 792.344 723.906 786.19C725.496 783.262 727.012 781.408 726.236 778.183C725.792 775.284 725.792 772.334 726.236 769.434C726.236 767.247 729.23 769.435 730.303 769.731C730.595 769.814 730.907 769.797 731.188 769.683C731.47 769.569 731.706 769.364 731.858 769.1C732.011 768.837 732.071 768.53 732.031 768.228C731.99 767.926 731.85 767.646 731.634 767.433C722.797 758.536 731.19 747.378 733.741 738.407C734.925 733.997 735.888 729.531 736.625 725.025C737.475 720.094 739.657 715.609 740.655 710.679C742.282 702.412 746.534 694.516 747.569 686.138C747.828 684.136 749.048 679.392 747.569 677.501C748.319 678.409 749.345 679.047 750.49 679.317C751.266 679.651 752.154 678.687 751.895 677.909C751.081 675.499 749.344 662.821 753.3 663.081C754.261 663.081 756.553 663.081 756.997 661.709C757.555 658.424 758.985 655.351 761.138 652.812C760.63 657.591 761.369 662.419 763.282 666.825C764.489 669.517 765.502 672.292 766.314 675.128C767.202 679.91 762.617 688.511 761.027 692.959C760.987 693.102 760.981 693.253 761.008 693.399C761.036 693.545 761.097 693.682 761.187 693.801C761.276 693.919 761.392 694.015 761.524 694.081C761.657 694.148 761.803 694.182 761.951 694.182C763.837 694.182 763.615 694.182 765.168 692.811C765.834 692.292 765.981 702.301 765.981 703.19C765.981 711.16 770.159 719.464 769.383 727.064C769.381 727.259 769.44 727.451 769.553 727.611C769.666 727.771 769.826 727.89 770.011 727.953C774.966 728.732 772.082 719.983 774.152 726.47C775.645 731.428 776.246 736.612 775.927 741.78C775.927 747.304 772.747 751.641 772.23 756.979C772.23 757.98 773.672 758.351 774.116 757.498C775.52 754.495 777.036 752.049 778.367 748.935C779.698 745.821 779.772 742.114 780.919 738.741C780.919 738.963 780.919 739.222 780.919 739.556C781.561 741.685 782.534 743.699 783.802 745.524C783.874 745.647 783.977 745.75 784.1 745.82C784.223 745.891 784.363 745.929 784.505 745.929C784.647 745.929 784.787 745.891 784.91 745.82C785.033 745.75 785.136 745.647 785.207 745.524C787.078 741.211 787.791 736.483 787.278 731.808L788.054 733.291C788.166 733.466 788.33 733.6 788.523 733.673C788.716 733.747 788.928 733.756 789.126 733.699C789.629 733.577 790.087 733.319 790.453 732.953C790.818 732.587 791.075 732.127 791.197 731.623C792.454 728.509 790.568 729.362 793.304 731.215C793.47 731.339 793.671 731.405 793.878 731.405C794.084 731.405 794.285 731.339 794.451 731.215C794.332 732.126 794.332 733.048 794.451 733.959C793.748 738.815 790.495 742.892 788.461 747.267C784.568 756.396 781.162 765.726 778.256 775.217C775.853 782.149 778.072 789.304 779.551 796.088C780.653 802.263 781.074 808.541 780.808 814.808C780.808 817.737 779.329 820.813 779.07 823.742L778.885 823.52C777.846 821.908 776.603 820.437 775.188 819.145C774.574 818.637 773.905 818.201 773.191 817.848C773.191 817.848 771.047 817.069 771.527 816.662C772.008 816.254 771.527 815.994 771.121 816.18C770.714 816.365 770.603 816.476 770.492 817.218C770.444 817.282 770.418 817.36 770.418 817.44C770.418 817.52 770.444 817.598 770.492 817.663C772.833 818.917 774.75 820.839 776.001 823.186C776.556 824.113 777.184 825.002 777.739 825.929C778.016 826.46 778.192 827.038 778.256 827.634C773.08 825.41 764.318 826.708 760.546 827.634C760.288 827.634 760.288 828.079 760.546 828.153C764.244 828.932 767.941 828.561 771.638 829.488C773.214 829.847 774.77 830.292 776.297 830.822C776.777 830.992 777.236 831.216 777.665 831.49C776.481 832.05 775.242 832.485 773.968 832.787C771.487 832.656 769.001 832.855 766.573 833.38C764.022 834.455 762.21 836.012 762.358 838.867C762.358 838.867 762.358 839.052 762.543 838.867C763.319 835.716 766.24 835.16 768.939 835.16C767.79 836.984 767.235 839.121 767.349 841.276C767.349 845.465 771.047 848.357 769.568 853.027C769.235 854.028 768.643 855.733 769.568 856.734C774.115 860.923 769.901 872.081 769.901 877.642C769.901 882.424 777.813 885.575 781.399 886.872C798.259 893.1 810.46 907.669 829.094 908.447C835.49 908.706 843.883 908.706 848.912 903.628C849.531 903.026 850.024 902.306 850.361 901.51C850.697 900.714 850.871 899.859 850.871 898.994C851.056 899.001 851.24 898.968 851.411 898.896C851.581 898.824 851.734 898.715 851.857 898.577C851.981 898.438 852.073 898.275 852.126 898.097C852.179 897.919 852.193 897.732 852.165 897.548C850.571 888.38 845.995 879.999 839.151 873.712C836.302 870.695 833.211 867.917 829.908 865.409C824.62 861.516 826.21 855.882 826.395 849.913C825.866 847.82 824.882 845.87 823.511 844.205C820.738 841.536 819.592 841.091 819.481 837.161C819.37 833.232 817.448 833.269 816.523 830.155C816.42 829.826 816.333 829.492 816.265 829.154H817.891C821.907 829.177 825.884 828.369 829.575 826.782C828.071 826.884 826.561 826.746 825.101 826.374C823.437 826.152 821.626 826.374 819.925 826.374C818.842 826.3 817.754 826.3 816.671 826.374C816.967 825.262 817.226 824.15 817.485 823.001C818.947 822.285 820.524 821.833 822.143 821.666C824.325 821.666 826.136 822.778 828.281 822.63C828.355 822.606 828.419 822.558 828.465 822.495C828.51 822.432 828.535 822.356 828.535 822.278C828.535 822.2 828.51 822.124 828.465 822.06C828.419 821.997 828.355 821.95 828.281 821.926C826.022 820.365 823.397 819.419 820.664 819.182C819.791 819.137 818.916 819.237 818.076 819.479C818.668 816.847 819.296 814.178 820.073 811.583C821.737 806.245 825.027 801.611 826.913 796.421C829.205 790.12 833.901 784.707 836.932 778.702C839.447 773.772 841.517 768.397 843.551 763.244C847.037 753.805 847.258 743.465 844.179 733.884C844.434 734.115 844.706 734.325 844.992 734.515C845.293 734.679 845.646 734.72 845.976 734.63C846.307 734.54 846.59 734.326 846.767 734.033C847.066 733.65 847.274 733.204 847.376 732.729C847.479 732.254 847.473 731.762 847.359 731.29C847.254 730.044 847.366 728.789 847.691 727.583C848.875 730.734 850.28 733.81 851.389 737.184C851.722 738.185 853.274 737.777 852.942 736.776C851.943 733.551 850.834 730.548 849.836 727.545C849.836 726.137 849.836 724.765 849.836 723.319C849.845 722.447 849.944 721.577 850.132 720.725C850.317 719.983 850.501 719.205 850.649 718.426L851.315 716.054L851.648 715.201C852.213 716.631 853.208 717.848 854.494 718.686C854.588 718.749 854.695 718.788 854.806 718.801C854.918 718.814 855.031 718.8 855.136 718.76C855.241 718.72 855.335 718.655 855.41 718.572C855.485 718.488 855.539 718.387 855.567 718.278C856.01 716.462 856.454 714.793 856.75 713.088C857.802 714.646 859.044 716.065 860.447 717.314C861.297 717.388 862.37 716.61 861.889 715.831Z" fill="black"/>
<path d="M861.889 715.831C859.375 711.754 855.936 707.75 855.936 702.746C856.123 697.616 856.855 692.521 858.118 687.547C859.244 681.956 859.394 676.211 858.562 670.569C857.521 662.425 855.394 654.458 852.239 646.881C848.542 638.577 849.466 626.678 849.429 617.707C849.429 602.879 849.984 587.199 847.359 572.519C846.403 565.849 844.549 559.339 841.85 553.168C842.275 552.932 842.662 552.632 842.996 552.279C843.163 552.033 843.252 551.742 843.252 551.445C843.252 551.147 843.163 550.856 842.996 550.61C844.9 550.802 846.814 550.864 848.727 550.796C848.947 550.79 849.161 550.721 849.343 550.597C849.525 550.472 849.667 550.298 849.753 550.095C849.839 549.891 849.864 549.668 849.826 549.45C849.789 549.233 849.689 549.031 849.54 548.868C845.843 545.421 845.251 540.527 842.885 536.338C842.097 535.01 841.069 533.841 839.853 532.891C837.931 531.223 838.079 527.664 837.191 525.477C835.49 520.992 831.608 517.507 830.055 512.577C830.055 512.577 829.538 510.167 828.835 509.796C831.091 510.983 832.976 512.947 835.195 514.282C835.368 514.379 835.562 514.436 835.76 514.449C835.959 514.461 836.157 514.429 836.342 514.354C836.526 514.279 836.692 514.164 836.826 514.017C836.96 513.87 837.06 513.694 837.117 513.503C838.855 509.166 836.082 505.904 832.496 503.939C831.179 503.178 830.103 502.06 829.39 500.714C830.737 501.508 832.265 501.942 833.827 501.975C834.936 501.975 834.899 500.344 833.827 500.269C824.473 499.788 826.691 485.034 823.696 479.177C821.826 475.117 820.663 470.767 820.258 466.313C820.952 467.273 821.773 468.133 822.698 468.871C823.031 469.168 823.622 468.871 823.363 468.389C818.853 461.42 819.666 455.118 819.666 447.185C819.666 444.034 821.034 437.399 819.296 434.359C817.115 430.652 815.155 434.767 815.969 428.687C816.523 424.276 813.676 421.273 813.676 416.825C813.676 407.483 816.338 398.105 811.125 389.504C807.021 382.684 807.132 373.75 807.095 366.076C807.095 363.111 804.766 355.919 811.458 359.515C812.398 360.151 813.503 360.499 814.638 360.516C815.118 360.516 815.488 360.034 815.525 359.589C815.525 356.401 814.416 358.254 818.113 357.402C818.224 357.372 818.327 357.32 818.417 357.249C818.507 357.179 818.582 357.091 818.637 356.99C818.692 356.89 818.726 356.779 818.738 356.665C818.75 356.551 818.739 356.436 818.705 356.327C816.228 349.765 822.809 355.4 826.099 352.249C826.198 352.115 826.252 351.953 826.252 351.786C826.252 351.619 826.198 351.456 826.099 351.322C824.657 348.32 829.316 349.728 831.091 349.061C831.349 349.061 831.645 348.764 831.682 348.468C831.853 347.466 831.732 346.435 831.331 345.501C830.931 344.567 830.27 343.769 829.427 343.204C832.647 340.852 835.699 338.275 838.559 335.493C838.722 335.207 838.767 334.869 838.684 334.55C838.601 334.231 838.397 333.958 838.116 333.788C835.349 331.539 832.719 329.125 830.24 326.56C830.795 325.855 831.275 325.188 831.83 324.521C835.457 320.515 839.388 316.797 843.587 313.4C846.471 310.505 848.957 307.239 850.982 303.687C851.231 303.646 851.458 303.52 851.626 303.331C851.794 303.143 851.893 302.902 851.906 302.649V302.316L852.091 302.056C852.232 301.87 852.308 301.642 852.308 301.408C852.308 301.173 852.232 300.946 852.091 300.759C852.442 292.777 851.145 284.808 848.282 277.351C845.419 269.894 841.052 263.11 835.453 257.424C832.385 254.384 829.76 250.826 826.987 247.526C824.214 244.227 820.775 242.114 818.187 238.926C816.289 236.379 814.631 233.661 813.233 230.808C811.939 224.172 810.164 218.871 812.9 211.754C813.246 210.748 813.378 209.682 813.289 208.622C813.2 207.563 812.891 206.533 812.382 205.6C812.313 205.355 812.15 205.146 811.928 205.021C811.707 204.896 811.444 204.865 811.199 204.933C809.683 205.452 810.497 204.303 810.275 202.968C810.275 202.412 809.572 202.227 809.092 202.264C807.277 202.371 805.456 202.196 803.694 201.745C803.311 198.202 803.411 194.622 803.99 191.106C804.174 189.994 804.618 189.178 804.729 188.251C806.196 186.23 807.033 183.818 807.132 181.319C807.096 181.216 807.039 181.121 806.963 181.041C806.888 180.961 806.797 180.898 806.696 180.856C806.594 180.814 806.485 180.794 806.376 180.797C806.266 180.8 806.159 180.827 806.06 180.875C805.68 181.156 805.332 181.479 805.025 181.838C804.581 182.357 802.659 185.545 803.805 183.062C804.396 181.801 805.247 180.615 804.766 179.355C804.73 179.255 804.674 179.165 804.601 179.089C804.527 179.013 804.439 178.954 804.341 178.916C804.243 178.877 804.137 178.86 804.032 178.865C803.927 178.871 803.824 178.898 803.731 178.947C802.511 179.614 802.732 179.54 801.808 180.763C801.438 181.356 801.032 181.95 800.699 182.617C800.366 183.284 799.516 178.205 799.553 178.391C799.553 177.835 798.739 177.316 798.333 177.872C797.223 179.206 796.706 183.321 795.745 182.506V180.43C795.757 180.337 795.751 180.243 795.726 180.153C795.702 180.063 795.661 179.978 795.604 179.904C795.548 179.83 795.477 179.768 795.396 179.722C795.316 179.675 795.227 179.645 795.135 179.633C795.042 179.621 794.949 179.627 794.859 179.651C794.769 179.675 794.685 179.717 794.611 179.773C794.537 179.83 794.475 179.901 794.428 179.982C794.382 180.063 794.352 180.152 794.34 180.244C793.285 184.204 792.677 188.27 792.528 192.366C792.387 191.483 792.3 190.591 792.269 189.697C792.713 182.288 792.652 174.856 792.084 167.455C791.862 163.118 797.26 148.624 788.387 148.92C779.513 149.217 779.366 157.483 779.366 164.823C779.366 171.348 780.549 177.798 780.586 184.359C780.586 186.287 780.586 188.066 780.586 190.068C777.776 184.693 773.191 179.577 773.191 173.609C773.191 169.642 773.413 164.23 768.606 162.673C756.221 158.633 760.731 173.164 761.767 180.022C763.131 187.102 763.934 194.279 764.17 201.485C764.17 206.675 766.425 222.245 754.335 217.055C751.155 215.72 749.713 211.828 746.423 210.605C742.467 209.159 728.417 205.044 729.711 212.421C729.384 213.465 729.21 214.552 729.193 215.646C729.415 218.686 734.998 220.243 736.773 222.17C740.83 226.239 745.22 229.96 749.898 233.291C755.111 237.184 759.437 242.411 765.427 245.006C767.209 245.53 769.045 245.853 770.899 245.969C773.073 245.959 775.226 246.398 777.223 247.259C779.221 248.12 781.02 249.385 782.508 250.974C792.468 260.807 799.596 273.153 803.139 286.709C797.63 286.524 792.047 286.524 786.612 286.709C782.915 286.709 783.211 288.081 779.883 288.489C776.556 288.896 778.109 287.525 775.557 288.489C775.409 288.575 775.286 288.699 775.201 288.849C775.117 288.999 775.074 289.169 775.077 289.341C774.892 291.009 761.73 287.525 759.511 288.822C758.527 289.462 757.805 290.436 757.478 291.565C757.608 290.085 757.608 288.597 757.478 287.117C757.422 287.008 757.337 286.917 757.233 286.853C757.128 286.789 757.008 286.756 756.886 286.756C756.764 286.756 756.644 286.789 756.54 286.853C756.435 286.917 756.351 287.008 756.295 287.117C755.296 288.951 754.871 291.043 755.074 293.122C754.376 292.473 753.484 292.071 752.536 291.977C751.588 291.883 750.636 292.103 749.824 292.603C749.566 292.826 749.824 293.16 750.12 293.122C752.264 292.678 754.409 295.606 755.518 297.2C755.532 297.261 755.532 297.324 755.518 297.385C754.987 297.538 754.442 297.637 753.891 297.682C751.525 297.682 749.381 296.681 746.94 297.126C746.178 297.426 745.486 297.881 744.907 298.461C744.328 299.041 743.875 299.735 743.576 300.499C742.303 300.561 741.051 300.85 739.879 301.352C738.474 301.871 736.181 301.537 734.148 302.019C734.324 301.733 734.522 301.46 734.739 301.204C735.849 299.906 736.995 298.683 738.104 297.497C738.728 296.504 739.296 295.477 739.805 294.42C737.239 295.562 734.991 297.319 733.26 299.536L732.817 299.832C731.116 300.833 729.748 302.242 728.121 303.317L727.197 304.021C727.53 303.354 727.825 302.649 728.195 302.019C729.094 300.231 730.12 298.509 731.264 296.867C731.576 296.529 731.787 296.109 731.872 295.657C731.957 295.204 731.913 294.737 731.745 294.309H731.449C731.153 295.235 729.859 296.088 729.341 296.867C728.156 298.474 727.057 300.145 726.051 301.871C725.644 302.538 725.053 303.465 724.535 304.466C724.414 304.303 724.264 304.164 724.091 304.058L717.954 299.98C716.105 298.72 712.704 296.273 712.593 293.864C713.509 291.792 714.251 289.647 714.811 287.451C717.103 278.776 711.114 271.029 707.712 263.763C704.148 255.396 699.881 247.347 694.957 239.705C691.074 234.033 686.527 226.915 679.021 226.174C671.654 225.589 664.265 226.983 657.614 230.215C651.601 232.541 646.441 236.654 642.825 242.003C638.832 249.417 634.062 257.535 634.358 266.135C634.654 274.736 638.055 282.632 639.645 290.935C636.946 291.825 634.802 289.675 634.432 293.753C634.062 297.83 636.17 299.535 639.054 301.537C641.938 303.539 644.784 309.137 648.925 310.1C649.428 310.242 649.954 310.276 650.47 310.2C650.986 310.123 651.481 309.937 651.92 309.656C652.449 309.276 652.807 308.704 652.918 308.062C656.616 311.769 660.646 314.364 663.049 319.627C665.452 324.891 671.849 332.787 664.454 338.57C663.062 339.611 661.591 340.54 660.054 341.351C658.931 341.756 657.881 342.345 656.949 343.093L656.172 343.575C655.973 343.72 655.829 343.929 655.765 344.168L655.285 344.613C653.935 344.299 652.531 344.299 651.181 344.613C651.142 344.636 651.111 344.668 651.089 344.707C651.067 344.746 651.055 344.79 651.055 344.835C651.055 344.88 651.067 344.924 651.089 344.963C651.111 345.002 651.142 345.034 651.181 345.057L653.806 346.429C653.325 347.022 652.845 347.615 652.438 348.171C651.514 349.395 650.552 350.766 649.628 352.175H647.927C646.781 352.175 641.013 354.103 640.865 353.065V353.732C640.843 353.771 640.831 353.816 640.831 353.862C640.831 353.907 640.843 353.952 640.865 353.991C643.442 354.294 646.041 354.356 648.63 354.177V354.473L648.001 355.178C647.15 355.393 646.311 355.652 645.487 355.956C644.082 356.512 642.677 356.957 641.309 357.513C641.211 357.513 641.117 357.552 641.048 357.622C640.978 357.691 640.939 357.785 640.939 357.884C640.939 357.982 640.978 358.076 641.048 358.146C641.117 358.215 641.211 358.254 641.309 358.254C642.39 358.652 643.524 358.889 644.674 358.959C643.786 360.034 642.862 361.072 641.975 362.11C641.087 363.148 638.277 365.817 636.244 368.523C635.772 368.266 635.395 367.863 635.171 367.374C635.152 367.325 635.119 367.284 635.076 367.255C635.033 367.226 634.983 367.21 634.931 367.21C634.879 367.21 634.829 367.226 634.786 367.255C634.743 367.284 634.71 367.325 634.691 367.374C634.606 367.807 634.609 368.253 634.697 368.686C634.786 369.119 634.96 369.529 635.208 369.894L634.691 370.562C632.885 370.376 631.07 370.302 629.256 370.339C628.775 370.339 628.368 371.006 628.886 371.266C630.263 371.982 631.731 372.506 633.249 372.823C632.668 373.753 632.314 374.807 632.214 375.9L631.844 376.345C630.677 377.644 629.443 378.882 628.147 380.052C624.141 384.011 621.147 388.881 619.421 394.249C615.567 404.261 614.295 415.086 615.724 425.722C617.646 440.142 621.639 454.377 622.49 468.908C623.155 480.029 623.118 492.93 613.69 501.011C613.358 501.307 613.69 501.789 614.134 501.604C617.559 499.498 620.276 496.412 621.935 492.744C621.558 495.658 621.496 498.603 621.75 501.53C620.795 504.149 620.041 506.839 619.495 509.574C617.949 512.164 615.988 514.481 613.69 516.432C613.394 516.691 613.69 517.136 614.134 516.988C616.021 516.005 617.645 514.581 618.867 512.836C618.201 516.321 617.646 519.694 616.796 522.66C613.653 533.558 613.358 545.754 611.287 556.912C608.912 568.555 608.302 580.489 609.475 592.314C610.363 599.432 612.914 606.327 613.727 613.444C614.573 622.941 613.912 632.513 611.768 641.803C609.549 651.849 605.445 662.006 606.924 672.608C608.403 683.21 616.574 695.183 626.409 699.261C630.106 700.781 637.686 697.333 637.686 693.07C637.686 690.809 633.249 686.768 631.659 685.656C628.738 683.803 627.962 684.581 631.918 684.544C633.237 684.371 634.501 683.902 635.615 683.173C635.773 683.082 635.897 682.943 635.971 682.776C636.044 682.61 636.062 682.424 636.022 682.246C635.8 680.874 635.504 680.355 633.914 679.911C632.332 679.518 630.853 678.788 629.577 677.771C628.301 676.754 627.258 675.474 626.52 674.016C623.229 664.823 628.368 669.716 630.217 668.159C633.101 665.972 634.284 676.871 637.981 678.947C637.71 679.117 637.426 679.266 637.131 679.392C637.033 679.392 636.939 679.431 636.87 679.5C636.8 679.57 636.761 679.664 636.761 679.762C636.761 679.861 636.8 679.955 636.87 680.024C636.939 680.094 637.033 680.133 637.131 680.133C648.888 680.578 637.945 649.217 637.131 643.878C636.318 638.54 633.988 635.241 634.21 630.051C634.618 624.567 635.865 619.178 637.907 614.074C641.087 604.992 644.23 595.873 647.779 586.828C649.665 582.009 651.477 577.19 653.51 572.334C655.544 567.477 655.359 561.212 656.986 555.615C659.653 547.788 661.548 539.717 662.642 531.519C663.739 520.931 664.097 510.278 663.715 499.639C663.715 499.269 663.715 498.898 663.715 498.564C665.452 499.009 668.336 499.38 667.412 497.081C667.379 497.01 667.327 496.95 667.262 496.908C667.196 496.866 667.12 496.843 667.042 496.843C666.964 496.843 666.888 496.866 666.822 496.908C666.757 496.95 666.705 497.01 666.672 497.081C666.34 497.675 664.787 497.267 663.53 497.081C663.53 495.784 663.53 494.561 663.53 493.374C664.441 493.921 665.466 494.251 666.524 494.338C668.067 496.88 668.838 499.817 668.743 502.79C668.743 504.236 667.079 507.609 667.966 509.129C671.257 514.764 671.664 520.584 675.99 525.922C676.155 526.091 676.371 526.202 676.605 526.235C676.839 526.269 677.078 526.224 677.284 526.107C678.836 525.218 680.131 520.806 679.983 522.993C679.724 526.293 678.208 527.219 676.544 529.962C674.88 532.706 673.734 537.747 677.801 538.748C680.057 539.304 681.499 553.91 681.499 557.024C681.794 562.176 684.789 565.327 680.389 569.442C679.623 569.971 679.039 570.727 678.721 571.604C678.403 572.481 678.366 573.436 678.615 574.335C678.666 574.531 678.769 574.71 678.912 574.853C679.055 574.996 679.233 575.099 679.428 575.151C681.666 575.491 683.931 575.627 686.194 575.559C685.577 577.711 685.108 579.903 684.789 582.12C683.648 591.305 683.117 600.556 683.199 609.811C683.199 620.932 681.499 631.164 682.534 642.173C683.125 648.438 684.604 658.262 682.534 664.23C681.661 666.315 681.148 668.534 681.018 670.791C681.018 671.792 682.312 672.719 683.236 672.052L684.974 670.717C684.974 672.904 684.974 675.129 684.974 677.39C684.974 680.392 682.127 682.357 683.199 685.286C683.256 685.469 683.357 685.635 683.492 685.771C683.627 685.906 683.793 686.007 683.976 686.064C685.566 686.324 683.606 699.743 683.606 701.634C683.566 709.743 682.218 717.792 679.613 725.47C677.838 731.252 675.509 736.591 673.217 742.262C670.886 749.345 668.095 756.268 664.861 762.984C663.209 767.411 662.322 772.086 662.236 776.811C661.459 783.632 663.567 788.822 663.973 795.346C664.824 809.47 670.185 823.149 667.301 837.532C667.081 837.494 666.856 837.494 666.635 837.532C665.226 837.403 663.808 837.659 662.531 838.273C662.194 838.274 661.866 838.377 661.588 838.569C661.311 838.761 661.098 839.033 660.979 839.349C660.863 839.874 660.863 840.417 660.979 840.942L660.276 840.349C659.402 839.526 658.373 838.885 657.25 838.465C656.126 838.045 654.93 837.854 653.732 837.903C653.51 837.903 653.436 838.273 653.732 838.311C656.653 838.904 658.058 841.017 660.017 842.981C660.451 843.429 660.847 843.913 661.2 844.427C658.251 843.93 655.239 843.93 652.29 844.427C649.666 844.462 647.121 845.327 645.016 846.898C642.912 848.469 641.356 850.666 640.57 853.176C643.158 846.651 650.515 844.946 657.318 845.762C655.958 846.622 654.715 847.656 653.621 848.838C650.293 852.545 645.376 856.66 644.895 861.813C644.906 861.986 644.96 862.153 645.052 862.3C645.144 862.447 645.271 862.568 645.422 862.653C645.573 862.737 645.742 862.783 645.915 862.785C646.088 862.787 646.258 862.746 646.411 862.665C650.481 859.956 654.983 857.962 659.722 856.771C657.762 860.033 658.834 865.631 655.1 867.336C651.366 869.042 654.139 881.645 655.322 884.389C657.762 890.06 656.061 898.846 656.061 904.888C655.352 909.149 654.2 913.324 652.623 917.344C651.144 923.275 651.772 935.063 658.427 938.103C666.276 941.178 674.785 942.161 683.125 940.957C691.555 939.808 703.054 942.514 703.423 931.727C703.28 923.389 702.264 915.089 700.392 906.964C698.247 895.658 702.832 884.722 703.312 873.268C703.872 872.857 704.497 872.543 705.161 872.341C708.156 871.303 713.036 872.341 714.072 875.492C714.072 875.788 714.515 875.788 714.589 875.492C714.731 874.97 714.731 874.42 714.589 873.898C714.606 873.863 714.614 873.825 714.614 873.786C714.614 873.748 714.606 873.71 714.589 873.675C715.324 870.179 714.702 866.534 712.851 863.481C712.054 862.415 711.163 861.423 710.189 860.515C710.707 859.959 710.189 860.515 711.89 859.477C714.848 857.735 709.339 852.731 708.193 851.582C706.549 849.751 704.531 848.298 702.277 847.319C705.577 847.029 708.901 847.369 712.075 848.319C712.075 848.319 712.371 848.319 712.297 848.134C711.077 844.724 705.161 844.612 701.39 845.02C702.123 843.969 702.979 843.011 703.941 842.166C708.392 838.523 713.184 835.32 718.249 832.602C719.174 832.046 718.249 830.6 717.436 831.193C714.823 832.296 712.268 833.533 709.783 834.9C707.453 836.642 709.487 834.9 710.189 833.899C711.336 832.194 712.371 830.378 713.443 828.598C714.959 826.226 723.5 815.661 721.466 812.213L721.984 811.843C722.243 811.657 722.243 811.175 721.984 811.138C720.579 810.916 719.765 811.731 718.286 811.509C716.57 811.577 714.896 812.06 713.406 812.918C713.702 810.323 713.406 807.357 713.887 805.207C715.144 798.015 720.542 792.344 723.906 786.19C725.496 783.262 727.012 781.408 726.236 778.183C725.792 775.284 725.792 772.334 726.236 769.434C726.236 767.247 729.23 769.435 730.303 769.731C730.595 769.814 730.907 769.797 731.188 769.683C731.47 769.569 731.706 769.364 731.858 769.1C732.011 768.837 732.071 768.53 732.031 768.228C731.99 767.926 731.85 767.646 731.634 767.433C722.797 758.536 731.19 747.378 733.741 738.407C734.925 733.997 735.888 729.531 736.625 725.025C737.475 720.094 739.657 715.609 740.655 710.679C742.282 702.412 746.534 694.516 747.569 686.138C747.828 684.136 749.048 679.392 747.569 677.501C748.319 678.409 749.345 679.047 750.49 679.317C751.266 679.651 752.154 678.687 751.895 677.909C751.081 675.499 749.344 662.821 753.3 663.081C754.261 663.081 756.553 663.081 756.997 661.709C757.555 658.424 758.985 655.351 761.138 652.812C760.63 657.591 761.369 662.419 763.282 666.825C764.489 669.517 765.502 672.292 766.314 675.128C767.202 679.91 762.617 688.511 761.027 692.959C760.987 693.102 760.981 693.253 761.008 693.399C761.036 693.545 761.097 693.682 761.187 693.801C761.276 693.919 761.392 694.015 761.524 694.081C761.657 694.148 761.803 694.182 761.951 694.182C763.837 694.182 763.615 694.182 765.168 692.811C765.834 692.292 765.981 702.301 765.981 703.19C765.981 711.16 770.159 719.464 769.383 727.064C769.381 727.259 769.44 727.451 769.553 727.611C769.666 727.771 769.826 727.89 770.011 727.953C774.966 728.732 772.082 719.983 774.152 726.47C775.645 731.428 776.246 736.612 775.927 741.78C775.927 747.304 772.747 751.641 772.23 756.979C772.23 757.98 773.672 758.351 774.116 757.498C775.52 754.495 777.036 752.049 778.367 748.935C779.698 745.821 779.772 742.114 780.919 738.741C780.919 738.963 780.919 739.222 780.919 739.556C781.561 741.685 782.534 743.699 783.802 745.524C783.874 745.647 783.977 745.75 784.1 745.82C784.223 745.891 784.363 745.929 784.505 745.929C784.647 745.929 784.787 745.891 784.91 745.82C785.033 745.75 785.136 745.647 785.207 745.524C787.078 741.211 787.791 736.483 787.278 731.808L788.054 733.291C788.166 733.466 788.33 733.6 788.523 733.673C788.716 733.747 788.928 733.756 789.126 733.699C789.629 733.577 790.087 733.319 790.453 732.953C790.818 732.587 791.075 732.127 791.197 731.623C792.454 728.509 790.568 729.362 793.304 731.215C793.47 731.339 793.671 731.405 793.878 731.405C794.084 731.405 794.285 731.339 794.451 731.215C794.332 732.126 794.332 733.048 794.451 733.959C793.748 738.815 790.495 742.892 788.461 747.267C784.568 756.396 781.162 765.726 778.256 775.217C775.853 782.149 778.072 789.304 779.551 796.088C780.653 802.263 781.074 808.541 780.808 814.808C780.808 817.737 779.329 820.813 779.07 823.742L778.885 823.52C777.846 821.908 776.603 820.437 775.188 819.145C774.574 818.637 773.905 818.201 773.191 817.848C773.191 817.848 771.047 817.069 771.527 816.662C772.008 816.254 771.527 815.994 771.121 816.18C770.714 816.365 770.603 816.476 770.492 817.218C770.444 817.282 770.418 817.36 770.418 817.44C770.418 817.52 770.444 817.598 770.492 817.663C772.833 818.917 774.75 820.839 776.001 823.186C776.556 824.113 777.184 825.002 777.739 825.929C778.016 826.46 778.192 827.038 778.256 827.634C773.08 825.41 764.318 826.708 760.546 827.634C760.288 827.634 760.288 828.079 760.546 828.153C764.244 828.932 767.941 828.561 771.638 829.488C773.214 829.847 774.77 830.292 776.297 830.822C776.777 830.992 777.236 831.216 777.665 831.49C776.481 832.05 775.242 832.485 773.968 832.787C771.487 832.656 769.001 832.855 766.573 833.38C764.022 834.455 762.21 836.012 762.358 838.867C762.358 838.867 762.358 839.052 762.543 838.867C763.319 835.716 766.24 835.16 768.939 835.16C767.79 836.984 767.235 839.121 767.349 841.276C767.349 845.465 771.047 848.357 769.568 853.027C769.235 854.028 768.643 855.733 769.568 856.734C774.115 860.923 769.901 872.081 769.901 877.642C769.901 882.424 777.813 885.575 781.399 886.872C798.259 893.1 810.46 907.669 829.094 908.447C835.49 908.706 843.883 908.706 848.912 903.628C849.531 903.026 850.024 902.306 850.361 901.51C850.697 900.714 850.871 899.859 850.871 898.994C851.056 899.001 851.24 898.968 851.411 898.896C851.581 898.824 851.734 898.715 851.857 898.577C851.981 898.438 852.073 898.275 852.126 898.097C852.179 897.919 852.193 897.732 852.165 897.548C850.571 888.38 845.995 879.999 839.151 873.712C836.302 870.695 833.211 867.917 829.908 865.409C824.62 861.516 826.21 855.882 826.395 849.913C825.866 847.82 824.882 845.87 823.511 844.205C820.738 841.536 819.592 841.091 819.481 837.161C819.37 833.232 817.448 833.269 816.523 830.155C816.42 829.826 816.333 829.492 816.265 829.154H817.891C821.907 829.177 825.884 828.369 829.575 826.782C828.071 826.884 826.561 826.746 825.101 826.374C823.437 826.152 821.626 826.374 819.925 826.374C818.842 826.3 817.754 826.3 816.671 826.374C816.967 825.262 817.226 824.15 817.485 823.001C818.947 822.285 820.524 821.833 822.143 821.666C824.325 821.666 826.136 822.778 828.281 822.63C828.355 822.606 828.419 822.558 828.465 822.495C828.51 822.432 828.535 822.356 828.535 822.278C828.535 822.2 828.51 822.124 828.465 822.06C828.419 821.997 828.355 821.95 828.281 821.926C826.022 820.365 823.397 819.419 820.664 819.182C819.791 819.137 818.916 819.237 818.076 819.479C818.668 816.847 819.296 814.178 820.073 811.583C821.737 806.245 825.027 801.611 826.913 796.421C829.205 790.12 833.901 784.707 836.932 778.702C839.447 773.772 841.517 768.397 843.551 763.244C847.037 753.805 847.258 743.465 844.179 733.884C844.434 734.115 844.706 734.325 844.992 734.515C845.293 734.679 845.646 734.72 845.976 734.63C846.307 734.54 846.59 734.326 846.767 734.033C847.066 733.65 847.274 733.204 847.376 732.729C847.479 732.254 847.473 731.762 847.359 731.29C847.254 730.044 847.366 728.789 847.691 727.583C848.875 730.734 850.28 733.81 851.389 737.184C851.722 738.185 853.274 737.777 852.942 736.776C851.943 733.551 850.834 730.548 849.836 727.545C849.836 726.137 849.836 724.765 849.836 723.319C849.845 722.447 849.944 721.577 850.132 720.725C850.317 719.983 850.501 719.205 850.649 718.426L851.315 716.054L851.648 715.201C852.213 716.631 853.208 717.848 854.494 718.686C854.588 718.749 854.695 718.788 854.806 718.801C854.918 718.814 855.031 718.8 855.136 718.76C855.241 718.72 855.335 718.655 855.41 718.572C855.485 718.488 855.539 718.387 855.567 718.278C856.01 716.462 856.454 714.793 856.75 713.088C857.802 714.646 859.044 716.065 860.447 717.314C861.297 717.388 862.37 716.61 861.889 715.831Z" stroke="url(#paint0_linear_452_4)" stroke-width="4" stroke-linejoin="round" mask="url(#path-1-outside-1_452_4)"/>
</g>
</g>
<defs>
<filter id="filter0_f_452_4" x="594" y="136.994" width="280" height="816" filterUnits="userSpaceOnUse" color-interpolation-filters="sRGB">
<feFlood flood-opacity="0" result="BackgroundImageFix"/>
<feBlend mode="normal" in="SourceGraphic" in2="BackgroundImageFix" result="shape"/>
<feGaussianBlur stdDeviation="6" result="effect1_foregroundBlur_452_4"/>
</filter>
<linearGradient id="paint0_linear_452_4" x1="561.131" y1="157.564" x2="769.17" y2="411.479" gradientUnits="userSpaceOnUse">
<stop stop-color="#00FFEA"/>
<stop offset="1" stop-color="#00FFEA" stop-opacity="0"/>
</linearGradient>
<clipPath id="clip0_452_4">
<rect width="1440" height="785" fill="white"/>
</clipPath>
<clipPath id="clip1_452_4">
<rect width="256" height="792" fill="white" transform="translate(606 148.994)"/>
</clipPath>
</defs>
</svg>
