<svg width="95" height="49" viewBox="0 0 95 49" fill="none" xmlns="http://www.w3.org/2000/svg">
<g id="mc-logo-min.b030a0f8 1" clip-path="url(#clip0_339_353)">
<g id="Clip path group">
<mask id="mask0_339_353" style="mask-type:luminance" maskUnits="userSpaceOnUse" x="0" y="0" width="94" height="49">
<g id="clip0">
<path id="Vector" d="M93.9683 0.874512H0.214325V48.6296H93.9683V0.874512Z" fill="white"/>
</g>
</mask>
<g mask="url(#mask0_339_353)">
<g id="Group">
<path id="Vector_2" fill-rule="evenodd" clip-rule="evenodd" d="M93.9688 0.874512H53.2951L53.2648 4.72019L70.3374 4.1308C73.3939 3.03261 76.5901 2.57778 79.5388 2.6337C84.7797 2.37282 86.8265 3.51955 86.8265 3.51955L88.5719 16.3555C88.5719 16.3555 86.6707 14.3118 80.5836 14.4066C79.1675 14.4067 77.7656 14.6896 76.4612 15.2386C75.157 15.7876 73.9766 16.5915 72.9898 17.6027C72.0033 18.614 71.2304 19.812 70.7173 21.1259C70.204 22.4398 69.9611 23.8428 70.0025 25.2519C70.1152 30.6465 74.6469 34.5926 80.4987 34.873C87.1558 34.3337 88.5699 33.2958 88.5699 33.2958L87.8096 45.693C84.8089 46.5098 81.688 46.798 78.5877 46.5448C77.2306 46.4096 74.7854 46.0048 71.9927 45.0987L52.9538 44.3632L52.9203 48.6296H93.9688V0.874512ZM66.0158 42.4646C63.8314 41.194 61.7359 39.5552 60.0387 37.4515L53.0099 37.1961L52.9668 42.6835L66.0158 42.4646ZM50.1746 42.7303L49.5016 37.0685L35.5483 36.5618L36.2725 42.9637L50.1746 42.7303ZM36.6275 46.101L36.3583 43.7223L50.3567 44.2628L50.5078 45.5334L36.6275 46.101ZM26.8301 43.1221L29.6189 36.3463L22.2998 36.0803L29.8189 35.8601L33.1906 27.6676L19.8842 27.177L33.6077 26.6539L34.2505 25.0921L34.4237 26.6228L48.1977 26.098L47.5318 20.4952L20.2181 19.2252C20.2181 19.2252 22.7265 19.1183 26.4394 18.9593L24.0223 12.4556L20.3879 12.3371L23.9259 12.196L21.579 5.88116L21.5544 5.81493L20.5602 3.14009L7.53492 3.1366L0.214325 45.5334H15.1401L17.2318 25.7539L24.0704 43.1684L22.6378 43.1924L24.1021 43.249L25.4086 46.5761L26.7361 43.3506L24.1021 43.249L24.0704 43.1684L26.8301 43.1221ZM35.4503 35.6953L49.2902 35.2903L48.4511 28.2303L34.5477 27.7178L35.4503 35.6953ZM53.0259 35.181L58.392 35.0238C57.345 33.1597 56.5932 31.0053 56.2733 28.5186L53.079 28.4008L53.0259 35.181ZM53.0985 25.9112L56.1023 25.7968C56.102 25.6166 56.104 25.4351 56.1082 25.2519C56.1424 23.7151 56.2792 22.2699 56.5073 20.9125L53.1391 20.7559L53.0985 25.9112ZM58.9831 13.5952C58.3135 14.8141 57.7424 16.1488 57.2891 17.6061C56.9746 17.6269 55.4406 17.6983 53.1622 17.8003L53.1966 13.4066L58.9831 13.5952ZM46.6641 13.1936L29.2431 12.6257L26.8602 18.9413C32.5258 18.6986 40.7594 18.3448 47.2427 18.0615L46.6641 13.1936ZM46.4387 11.2984L29.489 11.9742L31.6997 6.11589L45.8619 6.44437L46.4387 11.2984ZM60.9 10.7219L53.2154 11.0282L53.25 6.61573L64.9877 6.88795H64.9897C63.4931 7.94285 62.1089 9.21363 60.9 10.7219ZM45.688 4.98177L45.4687 3.1366H32.824L31.9487 5.45609L45.688 4.98177Z" fill="white"/>
</g>
</g>
</g>
</g>
<defs>
<clipPath id="clip0_339_353">
<rect width="94" height="48" fill="white" transform="translate(0.0898438 0.701172)"/>
</clipPath>
</defs>
</svg>
