<svg width="60" height="60" viewBox="0 0 60 60" fill="none" xmlns="http://www.w3.org/2000/svg">
<path d="M35.4545 5.45453H40.9091V8.1818H43.6363V10.9091H46.3636V13.6363H49.0909V16.3636H51.8182V21.8182H54.5454V38.1818H51.8182V43.6363H49.0909V46.3636H46.3636V49.0909H43.6363V51.8182H40.9091V54.5454H35.4545V49.0909H38.1818V46.3636H40.9091V43.6363H43.6363V40.9091H46.3636V35.4545H49.0909V24.5454H46.3636V19.0909H43.6363V16.3636H40.9091V13.6363H38.1818V10.9091H35.4545V5.45453ZM38.1818 19.0909V21.8182H40.9091V27.2727H43.6363V32.7273H40.9091V38.1818H38.1818V40.9091H35.4545V19.0909H38.1818ZM5.45453 21.8182H16.3636V19.0909H19.0909V16.3636H21.8182V13.6363H24.5454V10.9091H27.2727V8.1818H30V51.8182H27.2727V49.0909H24.5454V46.3636H21.8182V43.6363H19.0909V40.9091H16.3636V38.1818H5.45453V21.8182ZM10.9091 27.2727V32.7273H19.0909V35.4545H21.8182V38.1818H24.5454V21.8182H21.8182V24.5454H19.0909V27.2727H10.9091Z" fill="#73FAC6"/>
</svg>
